<svg xmlns="http://www.w3.org/2000/svg" xmlns:xlink="http://www.w3.org/1999/xlink" width="134" zoomAndPan="magnify" viewBox="0 0 100.5 212.999993" height="284" preserveAspectRatio="xMidYMid meet" version="1.0"><defs><clipPath id="0babd5bba9"><path d="M 13.585938 86.371094 L 83.964844 86.371094 L 83.964844 212.472656 L 13.585938 212.472656 Z M 13.585938 86.371094 " clip-rule="nonzero"/></clipPath><clipPath id="f830e94766"><path d="M 83.964844 121.5625 L 83.964844 177.132812 C 83.964844 186.464844 80.253906 195.417969 73.65625 202.015625 C 67.058594 208.613281 58.105469 212.324219 48.773438 212.324219 C 39.441406 212.324219 30.492188 208.613281 23.890625 202.015625 C 17.292969 195.417969 13.585938 186.464844 13.585938 177.132812 L 13.585938 121.5625 C 13.585938 112.226562 17.292969 103.277344 23.890625 96.679688 C 30.492188 90.078125 39.441406 86.371094 48.773438 86.371094 C 58.105469 86.371094 67.058594 90.078125 73.65625 96.679688 C 80.253906 103.277344 83.964844 112.226562 83.964844 121.5625 Z M 83.964844 121.5625 " clip-rule="nonzero"/></clipPath><clipPath id="347b96e12c"><path d="M 0.585938 0.371094 L 70.964844 0.371094 L 70.964844 126.351562 L 0.585938 126.351562 Z M 0.585938 0.371094 " clip-rule="nonzero"/></clipPath><clipPath id="a35b493c71"><path d="M 70.964844 35.5625 L 70.964844 91.132812 C 70.964844 100.464844 67.253906 109.417969 60.65625 116.015625 C 54.058594 122.613281 45.105469 126.324219 35.773438 126.324219 C 26.441406 126.324219 17.492188 122.613281 10.890625 116.015625 C 4.292969 109.417969 0.585938 100.464844 0.585938 91.132812 L 0.585938 35.5625 C 0.585938 26.226562 4.292969 17.277344 10.890625 10.679688 C 17.492188 4.078125 26.441406 0.371094 35.773438 0.371094 C 45.105469 0.371094 54.058594 4.078125 60.65625 10.679688 C 67.253906 17.277344 70.964844 26.226562 70.964844 35.5625 Z M 70.964844 35.5625 " clip-rule="nonzero"/></clipPath><clipPath id="a07814a6cf"><rect x="0" width="71" y="0" height="127"/></clipPath><clipPath id="d72067d7fe"><path d="M 13.585938 86.375 L 83.734375 86.375 L 83.734375 212.472656 L 13.585938 212.472656 Z M 13.585938 86.375 " clip-rule="nonzero"/></clipPath><clipPath id="819091715c"><path d="M 83.957031 121.5625 L 83.957031 177.128906 C 83.957031 186.460938 80.25 195.410156 73.652344 202.007812 C 67.050781 208.609375 58.101562 212.316406 48.769531 212.316406 C 39.4375 212.316406 30.488281 208.609375 23.890625 202.007812 C 17.292969 195.410156 13.585938 186.460938 13.585938 177.128906 L 13.585938 121.5625 C 13.585938 112.230469 17.292969 103.28125 23.890625 96.679688 C 30.488281 90.082031 39.4375 86.375 48.769531 86.375 C 58.101562 86.375 67.050781 90.082031 73.652344 96.679688 C 80.25 103.28125 83.957031 112.230469 83.957031 121.5625 Z M 83.957031 121.5625 " clip-rule="nonzero"/></clipPath><clipPath id="91803fe251"><path d="M 0 0.527344 L 97.546875 0.527344 L 97.546875 99.597656 L 0 99.597656 Z M 0 0.527344 " clip-rule="nonzero"/></clipPath><clipPath id="3786e09391"><path d="M 48.773438 0.527344 C 21.835938 0.527344 0 22.625 0 49.886719 C 0 77.144531 21.835938 99.242188 48.773438 99.242188 C 75.710938 99.242188 97.546875 77.144531 97.546875 49.886719 C 97.546875 22.625 75.710938 0.527344 48.773438 0.527344 Z M 48.773438 0.527344 " clip-rule="nonzero"/></clipPath><clipPath id="41f64d26f4"><path d="M 0 0.527344 L 97.546875 0.527344 L 97.546875 99.394531 L 0 99.394531 Z M 0 0.527344 " clip-rule="nonzero"/></clipPath><clipPath id="c82a0832f3"><path d="M 48.773438 0.527344 C 21.835938 0.527344 0 22.625 0 49.886719 C 0 77.144531 21.835938 99.242188 48.773438 99.242188 C 75.710938 99.242188 97.546875 77.144531 97.546875 49.886719 C 97.546875 22.625 75.710938 0.527344 48.773438 0.527344 Z M 48.773438 0.527344 " clip-rule="nonzero"/></clipPath><clipPath id="3dbf46b40f"><rect x="0" width="98" y="0" height="100"/></clipPath><clipPath id="62613b9e5e"><path d="M 78.167969 36.6875 L 99.9375 36.6875 L 99.9375 43.773438 L 78.167969 43.773438 Z M 78.167969 36.6875 " clip-rule="nonzero"/></clipPath><clipPath id="c1c74489d5"><path d="M 0.167969 0.6875 L 21.9375 0.6875 L 21.9375 7.773438 L 0.167969 7.773438 Z M 0.167969 0.6875 " clip-rule="nonzero"/></clipPath><clipPath id="85e5807c1d"><rect x="0" width="22" y="0" height="8"/></clipPath><clipPath id="5ac23165ea"><path d="M 36.140625 36.6875 L 57.910156 36.6875 L 57.910156 43.773438 L 36.140625 43.773438 Z M 36.140625 36.6875 " clip-rule="nonzero"/></clipPath><clipPath id="1797392aee"><path d="M 0.140625 0.6875 L 21.910156 0.6875 L 21.910156 7.773438 L 0.140625 7.773438 Z M 0.140625 0.6875 " clip-rule="nonzero"/></clipPath><clipPath id="06003e9e5b"><rect x="0" width="22" y="0" height="8"/></clipPath><clipPath id="df99f3b16c"><path d="M 43.683594 43.773438 L 53.863281 43.773438 L 53.863281 53.949219 L 43.683594 53.949219 Z M 43.683594 43.773438 " clip-rule="nonzero"/></clipPath><clipPath id="e1a5e8c960"><path d="M 0.683594 0.773438 L 10.863281 0.773438 L 10.863281 10.949219 L 0.683594 10.949219 Z M 0.683594 0.773438 " clip-rule="nonzero"/></clipPath><clipPath id="0d3f08b6d0"><rect x="0" width="11" y="0" height="11"/></clipPath><clipPath id="6e4c2842e5"><path d="M 83.964844 43.773438 L 94.140625 43.773438 L 94.140625 53.949219 L 83.964844 53.949219 Z M 83.964844 43.773438 " clip-rule="nonzero"/></clipPath><clipPath id="696b590e90"><path d="M 0.964844 0.773438 L 11.140625 0.773438 L 11.140625 10.949219 L 0.964844 10.949219 Z M 0.964844 0.773438 " clip-rule="nonzero"/></clipPath><clipPath id="afff030101"><rect x="0" width="12" y="0" height="11"/></clipPath><clipPath id="00d58b01b3"><path d="M 11.769531 0.527344 L 91.660156 0.527344 L 91.660156 26.632812 L 11.769531 26.632812 Z M 11.769531 0.527344 " clip-rule="nonzero"/></clipPath><clipPath id="55bc6a5f4e"><path d="M 0.769531 0.527344 L 80.660156 0.527344 L 80.660156 26.632812 L 0.769531 26.632812 Z M 0.769531 0.527344 " clip-rule="nonzero"/></clipPath><clipPath id="1bf80b5483"><rect x="0" width="81" y="0" height="27"/></clipPath><clipPath id="1f6740e666"><path d="M 0 22.757812 L 25.207031 22.757812 L 25.207031 48.859375 L 0 48.859375 Z M 0 22.757812 " clip-rule="nonzero"/></clipPath><clipPath id="677cfa9b8c"><path d="M 0 0.757812 L 25.207031 0.757812 L 25.207031 26.859375 L 0 26.859375 Z M 0 0.757812 " clip-rule="nonzero"/></clipPath><clipPath id="fdec442fde"><rect x="0" width="26" y="0" height="27"/></clipPath><clipPath id="3c3a477600"><path d="M 0 0.800781 L 24.546875 0.800781 L 24.546875 43.855469 L 0 43.855469 Z M 0 0.800781 " clip-rule="nonzero"/></clipPath><clipPath id="986917837b"><path d="M 12.273438 0.800781 C 5.496094 0.800781 0 10.421875 0 22.285156 C 0 34.152344 5.496094 43.773438 12.273438 43.773438 C 19.050781 43.773438 24.546875 34.152344 24.546875 22.285156 C 24.546875 10.421875 19.050781 0.800781 12.273438 0.800781 Z M 12.273438 0.800781 " clip-rule="nonzero"/></clipPath><clipPath id="f10e9e11a9"><path d="M 0 0.800781 L 24.546875 0.800781 L 24.546875 43.855469 L 0 43.855469 Z M 0 0.800781 " clip-rule="nonzero"/></clipPath><clipPath id="2cb9949437"><path d="M 12.273438 0.800781 C 5.496094 0.800781 0 10.421875 0 22.285156 C 0 34.152344 5.496094 43.773438 12.273438 43.773438 C 19.050781 43.773438 24.546875 34.152344 24.546875 22.285156 C 24.546875 10.421875 19.050781 0.800781 12.273438 0.800781 Z M 12.273438 0.800781 " clip-rule="nonzero"/></clipPath><clipPath id="33e0d5727d"><rect x="0" width="25" y="0" height="44"/></clipPath></defs><g clip-path="url(#0babd5bba9)"><g clip-path="url(#f830e94766)"><g transform="matrix(1, 0, 0, 1, 13, 86)"><g clip-path="url(#a07814a6cf)"><g clip-path="url(#347b96e12c)"><g clip-path="url(#a35b493c71)"><path fill="#a6a6a6" d="M 0.585938 0.371094 L 70.964844 0.371094 L 70.964844 126.28125 L 0.585938 126.28125 Z M 0.585938 0.371094 " fill-opacity="1" fill-rule="nonzero"/></g></g></g></g></g></g><g clip-path="url(#d72067d7fe)"><g clip-path="url(#819091715c)"><path stroke-linecap="butt" transform="matrix(0.746287, 0, 0, 0.746287, 13.584342, 86.374895)" fill="none" stroke-linejoin="miter" d="M 94.297074 47.150225 L 94.297074 121.60737 C 94.297074 134.111982 89.329774 146.103639 80.489134 154.94428 C 71.643258 163.790155 59.651602 168.757454 47.146989 168.757454 C 34.642376 168.757454 22.650719 163.790155 13.810078 154.94428 C 4.969437 146.103639 0.00213808 134.111982 0.00213808 121.60737 L 0.00213808 47.150225 C 0.00213808 34.645612 4.969437 22.653955 13.810078 13.80808 C 22.650719 4.967439 34.642376 0.000140179 47.146989 0.000140179 C 59.651602 0.000140179 71.643258 4.967439 80.489134 13.80808 C 89.329774 22.653955 94.297074 34.645612 94.297074 47.150225 Z M 94.297074 47.150225 " stroke="#000000" stroke-width="8" stroke-opacity="1" stroke-miterlimit="4"/></g></g><g clip-path="url(#91803fe251)"><g clip-path="url(#3786e09391)"><g transform="matrix(1, 0, 0, 1, 0, -0.000000000000008216)"><g clip-path="url(#3dbf46b40f)"><g clip-path="url(#41f64d26f4)"><g clip-path="url(#c82a0832f3)"><path fill="#f5e1c1" d="M 0 0.527344 L 97.546875 0.527344 L 97.546875 99.21875 L 0 99.21875 Z M 0 0.527344 " fill-opacity="1" fill-rule="nonzero"/></g></g></g></g></g></g><g clip-path="url(#62613b9e5e)"><g transform="matrix(1, 0, 0, 1, 78, 36)"><g clip-path="url(#85e5807c1d)"><g clip-path="url(#c1c74489d5)"><path fill="#2d0000" d="M 0.167969 0.6875 L 21.925781 0.6875 L 21.925781 7.773438 L 0.167969 7.773438 Z M 0.167969 0.6875 " fill-opacity="1" fill-rule="nonzero"/></g></g></g></g><g clip-path="url(#5ac23165ea)"><g transform="matrix(1, 0, 0, 1, 36, 36)"><g clip-path="url(#06003e9e5b)"><g clip-path="url(#1797392aee)"><path fill="#2d0000" d="M 0.140625 0.6875 L 21.898438 0.6875 L 21.898438 7.773438 L 0.140625 7.773438 Z M 0.140625 0.6875 " fill-opacity="1" fill-rule="nonzero"/></g></g></g></g><g clip-path="url(#df99f3b16c)"><g transform="matrix(1, 0, 0, 1, 43, 43)"><g clip-path="url(#0d3f08b6d0)"><g clip-path="url(#e1a5e8c960)"><path fill="#000000" d="M 0.683594 0.773438 L 10.863281 0.773438 L 10.863281 10.949219 L 0.683594 10.949219 Z M 0.683594 0.773438 " fill-opacity="1" fill-rule="nonzero"/></g></g></g></g><g clip-path="url(#6e4c2842e5)"><g transform="matrix(1, 0, 0, 1, 83, 43)"><g clip-path="url(#afff030101)"><g clip-path="url(#696b590e90)"><path fill="#000000" d="M 0.964844 0.773438 L 11.140625 0.773438 L 11.140625 10.949219 L 0.964844 10.949219 Z M 0.964844 0.773438 " fill-opacity="1" fill-rule="nonzero"/></g></g></g></g><g clip-path="url(#00d58b01b3)"><g transform="matrix(1, 0, 0, 1, 11, -0.000000000000008216)"><g clip-path="url(#1bf80b5483)"><g clip-path="url(#55bc6a5f4e)"><path fill="#2d0000" d="M 0.769531 0.527344 L 80.710938 0.527344 L 80.710938 26.632812 L 0.769531 26.632812 Z M 0.769531 0.527344 " fill-opacity="1" fill-rule="nonzero"/></g></g></g></g><g clip-path="url(#1f6740e666)"><g transform="matrix(1, 0, 0, 1, 0, 22)"><g clip-path="url(#fdec442fde)"><g clip-path="url(#677cfa9b8c)"><path fill="#2d0000" d="M 0 0.757812 L 25.207031 0.757812 L 25.207031 26.851562 L 0 26.851562 Z M 0 0.757812 " fill-opacity="1" fill-rule="nonzero"/></g></g></g></g><g clip-path="url(#3c3a477600)"><g clip-path="url(#986917837b)"><g transform="matrix(1, 0, 0, 1, 0, -0.000000000000008216)"><g clip-path="url(#33e0d5727d)"><g clip-path="url(#f10e9e11a9)"><g clip-path="url(#2cb9949437)"><path fill="#2d0000" d="M 0 0.800781 L 24.546875 0.800781 L 24.546875 43.757812 L 0 43.757812 Z M 0 0.800781 " fill-opacity="1" fill-rule="nonzero"/></g></g></g></g></g></g></svg>