<svg xmlns="http://www.w3.org/2000/svg" xmlns:xlink="http://www.w3.org/1999/xlink" width="131" zoomAndPan="magnify" viewBox="0 0 98.25 217.5" height="290" preserveAspectRatio="xMidYMid meet" version="1.0"><defs><clipPath id="c2b783a171"><path d="M 13.546875 90.375 L 83.742188 90.375 L 83.742188 216 L 13.546875 216 Z M 13.546875 90.375 " clip-rule="nonzero"/></clipPath><clipPath id="6deaec8f70"><path d="M 83.742188 125.472656 L 83.742188 180.898438 C 83.742188 190.207031 80.042969 199.132812 73.460938 205.714844 C 66.878906 212.296875 57.953125 215.996094 48.644531 215.996094 C 39.335938 215.996094 30.410156 212.296875 23.828125 205.714844 C 17.246094 199.132812 13.546875 190.207031 13.546875 180.898438 L 13.546875 125.472656 C 13.546875 116.164062 17.246094 107.238281 23.828125 100.65625 C 30.410156 94.074219 39.335938 90.375 48.644531 90.375 C 57.953125 90.375 66.878906 94.074219 73.460938 100.65625 C 80.042969 107.238281 83.742188 116.164062 83.742188 125.472656 Z M 83.742188 125.472656 " clip-rule="nonzero"/></clipPath><clipPath id="dc2672d7af"><path d="M 0.546875 0.375 L 70.742188 0.375 L 70.742188 126 L 0.546875 126 Z M 0.546875 0.375 " clip-rule="nonzero"/></clipPath><clipPath id="9579a9fa19"><path d="M 70.742188 35.472656 L 70.742188 90.898438 C 70.742188 100.207031 67.042969 109.132812 60.460938 115.714844 C 53.878906 122.296875 44.953125 125.996094 35.644531 125.996094 C 26.335938 125.996094 17.410156 122.296875 10.828125 115.714844 C 4.246094 109.132812 0.546875 100.207031 0.546875 90.898438 L 0.546875 35.472656 C 0.546875 26.164062 4.246094 17.238281 10.828125 10.65625 C 17.410156 4.074219 26.335938 0.375 35.644531 0.375 C 44.953125 0.375 53.878906 4.074219 60.460938 10.65625 C 67.042969 17.238281 70.742188 26.164062 70.742188 35.472656 Z M 70.742188 35.472656 " clip-rule="nonzero"/></clipPath><clipPath id="f36282dfc1"><rect x="0" width="71" y="0" height="126"/></clipPath><clipPath id="37ced4dd2d"><path d="M 13.546875 90.378906 L 83.515625 90.378906 L 83.515625 216 L 13.546875 216 Z M 13.546875 90.378906 " clip-rule="nonzero"/></clipPath><clipPath id="bf9fca41e1"><path d="M 83.734375 125.472656 L 83.734375 180.894531 C 83.734375 190.203125 80.039062 199.128906 73.457031 205.710938 C 66.875 212.292969 57.949219 215.988281 48.640625 215.988281 C 39.335938 215.988281 30.410156 212.292969 23.828125 205.710938 C 17.246094 199.128906 13.546875 190.203125 13.546875 180.894531 L 13.546875 125.472656 C 13.546875 116.167969 17.246094 107.242188 23.828125 100.660156 C 30.410156 94.078125 39.335938 90.378906 48.640625 90.378906 C 57.949219 90.378906 66.875 94.078125 73.457031 100.660156 C 80.039062 107.242188 83.734375 116.167969 83.734375 125.472656 Z M 83.734375 125.472656 " clip-rule="nonzero"/></clipPath><clipPath id="46e501b796"><path d="M 0 4.757812 L 97.289062 4.757812 L 97.289062 103.570312 L 0 103.570312 Z M 0 4.757812 " clip-rule="nonzero"/></clipPath><clipPath id="4097bc239c"><path d="M 48.644531 4.757812 C 21.777344 4.757812 0 26.800781 0 53.988281 C 0 81.175781 21.777344 103.214844 48.644531 103.214844 C 75.511719 103.214844 97.289062 81.175781 97.289062 53.988281 C 97.289062 26.800781 75.511719 4.757812 48.644531 4.757812 Z M 48.644531 4.757812 " clip-rule="nonzero"/></clipPath><clipPath id="35adc827c2"><path d="M 0 0.757812 L 97.289062 0.757812 L 97.289062 99.230469 L 0 99.230469 Z M 0 0.757812 " clip-rule="nonzero"/></clipPath><clipPath id="7093206051"><path d="M 48.644531 0.757812 C 21.777344 0.757812 0 22.800781 0 49.988281 C 0 77.175781 21.777344 99.214844 48.644531 99.214844 C 75.511719 99.214844 97.289062 77.175781 97.289062 49.988281 C 97.289062 22.800781 75.511719 0.757812 48.644531 0.757812 Z M 48.644531 0.757812 " clip-rule="nonzero"/></clipPath><clipPath id="11da0a7cfc"><rect x="0" width="98" y="0" height="100"/></clipPath><clipPath id="bfce43d087"><path d="M 15.910156 47.890625 L 26.0625 47.890625 L 26.0625 58.039062 L 15.910156 58.039062 Z M 15.910156 47.890625 " clip-rule="nonzero"/></clipPath><clipPath id="5bed97835b"><path d="M 0.910156 0.890625 L 11.0625 0.890625 L 11.0625 11.039062 L 0.910156 11.039062 Z M 0.910156 0.890625 " clip-rule="nonzero"/></clipPath><clipPath id="03404056a1"><rect x="0" width="12" y="0" height="12"/></clipPath><clipPath id="da3bee9cf0"><path d="M 70.804688 47.890625 L 80.953125 47.890625 L 80.953125 58.039062 L 70.804688 58.039062 Z M 70.804688 47.890625 " clip-rule="nonzero"/></clipPath><clipPath id="613ea0960f"><path d="M 0.804688 0.890625 L 10.953125 0.890625 L 10.953125 11.039062 L 0.804688 11.039062 Z M 0.804688 0.890625 " clip-rule="nonzero"/></clipPath><clipPath id="cf9dab81f0"><rect x="0" width="11" y="0" height="12"/></clipPath><clipPath id="51b96cb824"><path d="M 10.355469 38.960938 L 31.617188 38.960938 L 31.617188 42.683594 L 10.355469 42.683594 Z M 10.355469 38.960938 " clip-rule="nonzero"/></clipPath><clipPath id="13349d6351"><path d="M 0.355469 0.960938 L 21.617188 0.960938 L 21.617188 4.683594 L 0.355469 4.683594 Z M 0.355469 0.960938 " clip-rule="nonzero"/></clipPath><clipPath id="1eea91194f"><rect x="0" width="22" y="0" height="5"/></clipPath><clipPath id="2a4e6c8934"><path d="M 65.246094 38.960938 L 86.511719 38.960938 L 86.511719 42.683594 L 65.246094 42.683594 Z M 65.246094 38.960938 " clip-rule="nonzero"/></clipPath><clipPath id="7ffc43a5ef"><path d="M 0.246094 0.960938 L 21.511719 0.960938 L 21.511719 4.683594 L 0.246094 4.683594 Z M 0.246094 0.960938 " clip-rule="nonzero"/></clipPath><clipPath id="2d9163e8fa"><rect x="0" width="22" y="0" height="5"/></clipPath><clipPath id="28e078ae7d"><path d="M 11.953125 0.574219 L 85.339844 0.574219 L 85.339844 26.464844 L 11.953125 26.464844 Z M 11.953125 0.574219 " clip-rule="nonzero"/></clipPath><clipPath id="a3442be9c5"><path d="M 0.953125 0.574219 L 74.339844 0.574219 L 74.339844 26.464844 L 0.953125 26.464844 Z M 0.953125 0.574219 " clip-rule="nonzero"/></clipPath><clipPath id="f2e6ea1443"><rect x="0" width="75" y="0" height="27"/></clipPath></defs><g clip-path="url(#c2b783a171)"><g clip-path="url(#6deaec8f70)"><g transform="matrix(1, 0, 0, 1, 13, 90)"><g clip-path="url(#f36282dfc1)"><g clip-path="url(#dc2672d7af)"><g clip-path="url(#9579a9fa19)"><path fill="#ff751f" d="M 0.546875 0.375 L 70.742188 0.375 L 70.742188 125.957031 L 0.546875 125.957031 Z M 0.546875 0.375 " fill-opacity="1" fill-rule="nonzero"/></g></g></g></g></g></g><g clip-path="url(#37ced4dd2d)"><g clip-path="url(#bf9fca41e1)"><path stroke-linecap="butt" transform="matrix(0.744318, 0, 0, 0.744318, 13.548502, 90.38053)" fill="none" stroke-linejoin="miter" d="M 94.295528 47.146676 L 94.295528 121.606603 C 94.295528 134.112806 89.330833 146.104695 80.487798 154.94773 C 71.644764 163.790765 59.652874 168.75546 47.146671 168.75546 C 34.645716 168.75546 22.653827 163.790765 13.810792 154.94773 C 4.967757 146.104695 -0.00218588 134.112806 -0.00218588 121.606603 L -0.00218588 47.146676 C -0.00218588 34.645721 4.967757 22.653831 13.810792 13.810797 C 22.653827 4.967762 34.645716 -0.00218098 47.146671 -0.00218098 C 59.652874 -0.00218098 71.644764 4.967762 80.487798 13.810797 C 89.330833 22.653831 94.295528 34.645721 94.295528 47.146676 Z M 94.295528 47.146676 " stroke="#000000" stroke-width="8" stroke-opacity="1" stroke-miterlimit="4"/></g></g><g clip-path="url(#46e501b796)"><g clip-path="url(#4097bc239c)"><g transform="matrix(1, 0, 0, 1, 0, 4)"><g clip-path="url(#11da0a7cfc)"><g clip-path="url(#35adc827c2)"><g clip-path="url(#7093206051)"><path fill="#f5e1c1" d="M 0 0.757812 L 97.289062 0.757812 L 97.289062 99.191406 L 0 99.191406 Z M 0 0.757812 " fill-opacity="1" fill-rule="nonzero"/></g></g></g></g></g></g><g clip-path="url(#bfce43d087)"><g transform="matrix(1, 0, 0, 1, 15, 47)"><g clip-path="url(#03404056a1)"><g clip-path="url(#5bed97835b)"><path fill="#082f00" d="M 0.910156 0.890625 L 11.0625 0.890625 L 11.0625 11.039062 L 0.910156 11.039062 Z M 0.910156 0.890625 " fill-opacity="1" fill-rule="nonzero"/></g></g></g></g><g clip-path="url(#da3bee9cf0)"><g transform="matrix(1, 0, 0, 1, 70, 47)"><g clip-path="url(#cf9dab81f0)"><g clip-path="url(#613ea0960f)"><path fill="#082f00" d="M 0.804688 0.890625 L 10.953125 0.890625 L 10.953125 11.039062 L 0.804688 11.039062 Z M 0.804688 0.890625 " fill-opacity="1" fill-rule="nonzero"/></g></g></g></g><g clip-path="url(#51b96cb824)"><g transform="matrix(1, 0, 0, 1, 10, 38)"><g clip-path="url(#1eea91194f)"><g clip-path="url(#13349d6351)"><path fill="#dfc353" d="M 0.355469 0.960938 L 21.621094 0.960938 L 21.621094 4.683594 L 0.355469 4.683594 Z M 0.355469 0.960938 " fill-opacity="1" fill-rule="nonzero"/></g></g></g></g><g clip-path="url(#2a4e6c8934)"><g transform="matrix(1, 0, 0, 1, 65, 38)"><g clip-path="url(#2d9163e8fa)"><g clip-path="url(#7ffc43a5ef)"><path fill="#dfc353" d="M 0.246094 0.960938 L 21.515625 0.960938 L 21.515625 4.683594 L 0.246094 4.683594 Z M 0.246094 0.960938 " fill-opacity="1" fill-rule="nonzero"/></g></g></g></g><g clip-path="url(#28e078ae7d)"><g transform="matrix(1, 0, 0, 1, 11, 0.000000000000038969)"><g clip-path="url(#f2e6ea1443)"><g clip-path="url(#a3442be9c5)"><path fill="#dfc353" d="M 0.953125 0.574219 L 74.367188 0.574219 L 74.367188 26.464844 L 0.953125 26.464844 Z M 0.953125 0.574219 " fill-opacity="1" fill-rule="nonzero"/></g></g></g></g></svg>