<svg xmlns="http://www.w3.org/2000/svg" xmlns:xlink="http://www.w3.org/1999/xlink" width="385" zoomAndPan="magnify" viewBox="0 0 288.75 281.25" height="375" preserveAspectRatio="xMidYMid meet" version="1.0"><defs><g/><clipPath id="177df1707e"><path d="M 3.234375 9.625 L 216.6875 9.625 L 216.6875 251.980469 L 3.234375 251.980469 Z M 3.234375 9.625 " clip-rule="nonzero"/></clipPath><clipPath id="2e00cf7056"><path d="M 0.234375 0.625 L 213.6875 0.625 L 213.6875 242.980469 L 0.234375 242.980469 Z M 0.234375 0.625 " clip-rule="nonzero"/></clipPath><clipPath id="a2a2787c74"><rect x="0" width="214" y="0" height="243"/></clipPath><clipPath id="9773385e5c"><path d="M 3.234375 9.625 L 216.414062 9.625 L 216.414062 251.976562 L 3.234375 251.976562 Z M 3.234375 9.625 " clip-rule="nonzero"/></clipPath><clipPath id="091bc9d51c"><path d="M 0.257812 0 L 42 0 L 42 29 L 0.257812 29 Z M 0.257812 0 " clip-rule="nonzero"/></clipPath><clipPath id="5b915d7e95"><path d="M 5.210938 3.753906 L 22.84375 3.753906 L 22.84375 23.730469 L 5.210938 23.730469 Z M 5.210938 3.753906 " clip-rule="nonzero"/></clipPath><clipPath id="76bc28f48e"><path d="M 5.210938 13.738281 L 22.84375 3.753906 L 22.84375 23.722656 Z M 5.210938 13.738281 " clip-rule="nonzero"/></clipPath><clipPath id="a079889907"><path d="M 0.210938 0.753906 L 17.84375 0.753906 L 17.84375 20.730469 L 0.210938 20.730469 Z M 0.210938 0.753906 " clip-rule="nonzero"/></clipPath><clipPath id="980426915b"><path d="M 0.210938 10.738281 L 17.84375 0.753906 L 17.84375 20.722656 Z M 0.210938 10.738281 " clip-rule="nonzero"/></clipPath><clipPath id="d09aa7c09c"><rect x="0" width="18" y="0" height="21"/></clipPath><clipPath id="93da28a1dc"><path d="M 8.402344 235.296875 L 226.03125 235.296875 L 226.03125 249.410156 L 8.402344 249.410156 Z M 8.402344 235.296875 " clip-rule="nonzero"/></clipPath><clipPath id="0f1eb10a90"><path d="M 0.402344 0.296875 L 218.03125 0.296875 L 218.03125 14.410156 L 0.402344 14.410156 Z M 0.402344 0.296875 " clip-rule="nonzero"/></clipPath><clipPath id="07ebc0619a"><rect x="0" width="219" y="0" height="15"/></clipPath><clipPath id="4381cce88a"><path d="M 8.46875 235.296875 L 225.960938 235.296875 L 225.960938 249.402344 L 8.46875 249.402344 Z M 8.46875 235.296875 " clip-rule="nonzero"/></clipPath><clipPath id="0017d990ff"><path d="M 0.257812 224 L 43 224 L 43 268 L 0.257812 268 Z M 0.257812 224 " clip-rule="nonzero"/></clipPath><clipPath id="8a674370e5"><path d="M 22.851562 0 L 236.304688 0 L 236.304688 242.355469 L 22.851562 242.355469 Z M 22.851562 0 " clip-rule="nonzero"/></clipPath><clipPath id="b53e7272ca"><path d="M 0.851562 0 L 214.304688 0 L 214.304688 242.355469 L 0.851562 242.355469 Z M 0.851562 0 " clip-rule="nonzero"/></clipPath><clipPath id="68da76ae11"><rect x="0" width="215" y="0" height="243"/></clipPath><clipPath id="013db45ca1"><path d="M 22.851562 0 L 236.035156 0 L 236.035156 242.351562 L 22.851562 242.351562 Z M 22.851562 0 " clip-rule="nonzero"/></clipPath><clipPath id="076c292f9f"><path d="M 8.402344 132.5625 L 22.851562 132.5625 L 22.851562 241.152344 L 8.402344 241.152344 Z M 8.402344 132.5625 " clip-rule="nonzero"/></clipPath><clipPath id="59b58f3a80"><path d="M 0.402344 0.5625 L 14.851562 0.5625 L 14.851562 109.152344 L 0.402344 109.152344 Z M 0.402344 0.5625 " clip-rule="nonzero"/></clipPath><clipPath id="033a488dcf"><rect x="0" width="15" y="0" height="110"/></clipPath><clipPath id="7d49a5ed99"><path d="M 6 230 L 23 230 L 23 249 L 6 249 Z M 6 230 " clip-rule="nonzero"/></clipPath><clipPath id="8d2f4cbd13"><path d="M 10.59375 230.992188 L 22.851562 240.792969 L 12.476562 253.765625 L 0.222656 243.964844 Z M 10.59375 230.992188 " clip-rule="nonzero"/></clipPath><clipPath id="647a671d00"><path d="M 6.386719 248.820312 L 10.59375 230.992188 L 22.851562 240.792969 Z M 6.386719 248.820312 " clip-rule="nonzero"/></clipPath><clipPath id="075b9500c0"><path d="M 0.242188 0.984375 L 17 0.984375 L 17 18.9375 L 0.242188 18.9375 Z M 0.242188 0.984375 " clip-rule="nonzero"/></clipPath><clipPath id="46a3406a1c"><path d="M 4.59375 0.992188 L 16.851562 10.792969 L 6.476562 23.765625 L -5.777344 13.964844 Z M 4.59375 0.992188 " clip-rule="nonzero"/></clipPath><clipPath id="7b9fa46a7e"><path d="M 0.386719 18.820312 L 4.59375 0.992188 L 16.851562 10.792969 Z M 0.386719 18.820312 " clip-rule="nonzero"/></clipPath><clipPath id="a73e6e7d15"><rect x="0" width="17" y="0" height="19"/></clipPath><clipPath id="3ea7f6ad40"><path d="M 131 133 L 280 133 L 280 269 L 131 269 Z M 131 133 " clip-rule="nonzero"/></clipPath><clipPath id="5768059f98"><path d="M 267.574219 133.828125 L 279.988281 147.816406 L 144.355469 268.203125 L 131.941406 254.21875 Z M 267.574219 133.828125 " clip-rule="nonzero"/></clipPath><clipPath id="54d186f119"><path d="M 0.910156 0.804688 L 149 0.804688 L 149 135.324219 L 0.910156 135.324219 Z M 0.910156 0.804688 " clip-rule="nonzero"/></clipPath><clipPath id="28c26d87c8"><path d="M 136.574219 0.828125 L 148.988281 14.816406 L 13.355469 135.203125 L 0.941406 121.21875 Z M 136.574219 0.828125 " clip-rule="nonzero"/></clipPath><clipPath id="833adcdad6"><rect x="0" width="149" y="0" height="136"/></clipPath><clipPath id="b0a07193b9"><path d="M 132 133 L 280 133 L 280 268 L 132 268 Z M 132 133 " clip-rule="nonzero"/></clipPath><clipPath id="113f6687e0"><path d="M 267.574219 133.828125 L 279.988281 147.816406 L 144.609375 267.980469 L 132.195312 253.992188 Z M 267.574219 133.828125 " clip-rule="nonzero"/></clipPath><clipPath id="7bd6ad59d4"><path d="M 267.574219 133.828125 L 279.988281 147.816406 L 144.355469 268.203125 L 131.941406 254.21875 Z M 267.574219 133.828125 " clip-rule="nonzero"/></clipPath><clipPath id="721db1dedc"><path d="M 124 254 L 145 254 L 145 274 L 124 274 Z M 124 254 " clip-rule="nonzero"/></clipPath><clipPath id="3ee149354d"><path d="M 131.941406 254.21875 L 144.394531 268.25 L 130.734375 280.375 L 118.28125 266.34375 Z M 131.941406 254.21875 " clip-rule="nonzero"/></clipPath><clipPath id="be7c7ce219"><path d="M 124.488281 273.335938 L 131.941406 254.21875 L 144.355469 268.203125 Z M 124.488281 273.335938 " clip-rule="nonzero"/></clipPath><clipPath id="55d2ba926f"><path d="M 0.488281 0.203125 L 20.355469 0.203125 L 20.355469 19.351562 L 0.488281 19.351562 Z M 0.488281 0.203125 " clip-rule="nonzero"/></clipPath><clipPath id="211e9724e4"><path d="M 7.941406 0.21875 L 20.394531 14.25 L 6.734375 26.375 L -5.71875 12.34375 Z M 7.941406 0.21875 " clip-rule="nonzero"/></clipPath><clipPath id="569dfecac9"><path d="M 0.488281 19.335938 L 7.941406 0.21875 L 20.355469 14.203125 Z M 0.488281 19.335938 " clip-rule="nonzero"/></clipPath><clipPath id="5d2fa8e19e"><rect x="0" width="21" y="0" height="20"/></clipPath><clipPath id="dbb9c33ae2"><path d="M 124 254 L 145 254 L 145 274 L 124 274 Z M 124 254 " clip-rule="nonzero"/></clipPath><clipPath id="49dc6bfd30"><path d="M 131.941406 254.21875 L 144.355469 268.203125 L 130.925781 280.121094 L 118.515625 266.136719 Z M 131.941406 254.21875 " clip-rule="nonzero"/></clipPath><clipPath id="5b24a4ee45"><path d="M 131.941406 254.222656 L 144.351562 268.203125 L 130.625 280.386719 L 118.214844 266.40625 Z M 131.941406 254.222656 " clip-rule="nonzero"/></clipPath><clipPath id="ed89b2d306"><path d="M 124.492188 273.332031 L 131.941406 254.222656 L 144.351562 268.203125 Z M 124.492188 273.332031 " clip-rule="nonzero"/></clipPath><clipPath id="39e6fd5dc6"><path d="M 122 123 L 288.242188 123 L 288.242188 278 L 122 278 Z M 122 123 " clip-rule="nonzero"/></clipPath><clipPath id="14e879396d"><path d="M 267 126 L 288 126 L 288 148 L 267 148 Z M 267 126 " clip-rule="nonzero"/></clipPath><clipPath id="af44189bee"><path d="M 275.429688 126.859375 L 287.84375 140.84375 L 279.988281 147.816406 L 267.574219 133.828125 Z M 275.429688 126.859375 " clip-rule="nonzero"/></clipPath><clipPath id="16b7f73591"><path d="M 0.386719 0.621094 L 20.972656 0.621094 L 20.972656 21.925781 L 0.386719 21.925781 Z M 0.386719 0.621094 " clip-rule="nonzero"/></clipPath><clipPath id="3f1bbca8cd"><path d="M 8.429688 0.859375 L 20.84375 14.84375 L 12.988281 21.816406 L 0.574219 7.828125 Z M 8.429688 0.859375 " clip-rule="nonzero"/></clipPath><clipPath id="c39badd9c2"><rect x="0" width="21" y="0" height="22"/></clipPath><clipPath id="8dc4d21987"><path d="M 267 126 L 288 126 L 288 148 L 267 148 Z M 267 126 " clip-rule="nonzero"/></clipPath><clipPath id="68a8cb1b98"><path d="M 275.429688 126.859375 L 287.84375 140.84375 L 280.011719 147.796875 L 267.597656 133.808594 Z M 275.429688 126.859375 " clip-rule="nonzero"/></clipPath><clipPath id="633aa865cc"><path d="M 275.433594 126.863281 L 287.839844 140.839844 L 279.988281 147.808594 L 267.582031 133.828125 Z M 275.433594 126.863281 " clip-rule="nonzero"/></clipPath></defs><g clip-path="url(#177df1707e)"><g transform="matrix(1, 0, 0, 1, 3, 9)"><g clip-path="url(#a2a2787c74)"><g clip-path="url(#2e00cf7056)"><path fill="#ff3131" d="M 0.234375 0.625 L 213.6875 0.625 L 213.6875 243.261719 L 0.234375 243.261719 Z M 0.234375 0.625 " fill-opacity="1" fill-rule="nonzero"/></g></g></g></g><g clip-path="url(#9773385e5c)"><path stroke-linecap="butt" transform="matrix(0.748005, 0, 0, 0.748005, 3.234306, 9.626604)" fill="none" stroke-linejoin="miter" d="M 0.000091995 -0.0021446 L 285.357975 -0.0021446 L 285.357975 323.994959 L 0.000091995 323.994959 Z M 0.000091995 -0.0021446 " stroke="#000000" stroke-width="8" stroke-opacity="1" stroke-miterlimit="4"/></g><g clip-path="url(#091bc9d51c)"><path stroke-linecap="butt" transform="matrix(0.676459, -0.319242, 0.319242, 0.676459, 3.942227, 9.917756)" fill="none" stroke-linejoin="miter" d="M 0.0022475 1.999373 L 29.672409 1.998342 " stroke="#000000" stroke-width="4" stroke-opacity="1" stroke-miterlimit="4"/></g><g clip-path="url(#5b915d7e95)"><g clip-path="url(#76bc28f48e)"><g transform="matrix(1, 0, 0, 1, 5, 3)"><g clip-path="url(#d09aa7c09c)"><g clip-path="url(#a079889907)"><g clip-path="url(#980426915b)"><path fill="#ff3131" d="M 17.84375 0.753906 L 17.84375 20.730469 L 0.210938 20.730469 L 0.210938 0.753906 Z M 17.84375 0.753906 " fill-opacity="1" fill-rule="nonzero"/></g></g></g></g></g></g><g clip-path="url(#93da28a1dc)"><g transform="matrix(1, 0, 0, 1, 8, 235)"><g clip-path="url(#07ebc0619a)"><g clip-path="url(#0f1eb10a90)"><path fill="#ffffff" d="M 0.402344 0.296875 L 218.039062 0.296875 L 218.039062 14.410156 L 0.402344 14.410156 Z M 0.402344 0.296875 " fill-opacity="1" fill-rule="nonzero"/></g></g></g></g><g clip-path="url(#4381cce88a)"><path stroke-linecap="butt" transform="matrix(0.748005, 0, 0, 0.748005, 8.467498, 235.295768)" fill="none" stroke-linejoin="miter" d="M 0.00167413 0.00147995 L 290.764575 0.00147995 L 290.764575 18.858925 L 0.00167413 18.858925 Z M 0.00167413 0.00147995 " stroke="#000000" stroke-width="8" stroke-opacity="1" stroke-miterlimit="4"/></g><g clip-path="url(#0017d990ff)"><path stroke-linecap="butt" transform="matrix(0.676459, -0.319242, 0.319242, 0.676459, 4.580711, 249.272918)" fill="none" stroke-linejoin="miter" d="M -0.0000614606 1.998735 L 29.674823 1.999933 " stroke="#000000" stroke-width="4" stroke-opacity="1" stroke-miterlimit="4"/></g><g clip-path="url(#8a674370e5)"><g transform="matrix(1, 0, 0, 1, 22, -0.000000000000023702)"><g clip-path="url(#68da76ae11)"><g clip-path="url(#b53e7272ca)"><path fill="#ff3131" d="M 0.851562 0 L 214.304688 0 L 214.304688 242.636719 L 0.851562 242.636719 Z M 0.851562 0 " fill-opacity="1" fill-rule="nonzero"/></g></g></g></g><g clip-path="url(#013db45ca1)"><path stroke-linecap="butt" transform="matrix(0.748005, 0, 0, 0.748005, 22.85258, 0.00153296)" fill="none" stroke-linejoin="miter" d="M -0.00136013 -0.0020494 L 285.361745 -0.0020494 L 285.361745 323.995054 L -0.00136013 323.995054 Z M -0.00136013 -0.0020494 " stroke="#000000" stroke-width="8" stroke-opacity="1" stroke-miterlimit="4"/></g><g clip-path="url(#076c292f9f)"><g transform="matrix(1, 0, 0, 1, 8, 132)"><g clip-path="url(#033a488dcf)"><g clip-path="url(#59b58f3a80)"><path fill="#ff3131" d="M 0.402344 0.5625 L 14.851562 0.5625 L 14.851562 109.164062 L 0.402344 109.164062 Z M 0.402344 0.5625 " fill-opacity="1" fill-rule="nonzero"/></g></g></g></g><g clip-path="url(#7d49a5ed99)"><g clip-path="url(#8d2f4cbd13)"><g clip-path="url(#647a671d00)"><g transform="matrix(1, 0, 0, 1, 6, 230)"><g clip-path="url(#a73e6e7d15)"><g clip-path="url(#075b9500c0)"><g clip-path="url(#46a3406a1c)"><g clip-path="url(#7b9fa46a7e)"><path fill="#ff3131" d="M 4.59375 0.992188 L 16.851562 10.792969 L 6.515625 23.71875 L -5.742188 13.917969 Z M 4.59375 0.992188 " fill-opacity="1" fill-rule="nonzero"/></g></g></g></g></g></g></g></g><g fill="#000000" fill-opacity="1"><g transform="translate(88.622674, 93.998347)"><g><path d="M 47.8125 4.449219 L 33.398438 4.449219 L 33.398438 -15.148438 L 37.847656 -15.148438 L 41.683594 -12.894531 L 31.484375 4.449219 L 18.957031 4.449219 L 8.777344 -12.894531 L 12.617188 -15.148438 L 17.066406 -15.148438 L 17.066406 4.449219 L -1.800781 4.449219 L -1.800781 -28.207031 L 16.9375 -28.207031 L 28.992188 -9.167969 L 25.230469 -6.789062 L 21.46875 -9.167969 L 33.507812 -28.207031 L 52.265625 -28.207031 L 52.265625 4.449219 Z M 47.8125 -4.449219 L 47.8125 0 L 43.363281 0 L 43.363281 -23.757812 L 47.8125 -23.757812 L 47.8125 -19.308594 L 35.960938 -19.308594 L 35.960938 -23.757812 L 39.722656 -21.378906 L 25.234375 1.535156 L 10.726562 -21.378906 L 14.488281 -23.757812 L 14.488281 -19.308594 L 2.648438 -19.308594 L 2.648438 -23.757812 L 7.097656 -23.757812 L 7.097656 0 L 2.648438 0 L 2.648438 -4.449219 L 12.617188 -4.449219 L 12.617188 0 L 8.164062 0 L 8.164062 -31.523438 L 25.34375 -2.253906 L 21.507812 0 L 21.507812 -4.449219 L 28.941406 -4.449219 L 28.941406 0 L 25.105469 -2.253906 L 42.296875 -31.5 L 42.296875 0 L 37.847656 0 L 37.847656 -4.449219 Z M 47.8125 -4.449219 "/></g></g></g><g fill="#000000" fill-opacity="1"><g transform="translate(139.083858, 93.998347)"><g><path d="M 23.179688 4.449219 L 8.761719 4.449219 L 8.761719 -11.257812 L 13.210938 -11.257812 L 10.121094 -8.054688 L -10.777344 -28.207031 L 13.171875 -28.207031 L 21.386719 -19.757812 L 18.195312 -16.65625 L 15 -19.753906 L 23.199219 -28.207031 L 47.144531 -28.207031 L 26.269531 -8.054688 L 23.179688 -11.257812 L 27.628906 -11.257812 L 27.628906 4.449219 Z M 23.179688 -4.449219 L 23.179688 0 L 18.726562 0 L 18.726562 -13.148438 L 33.035156 -26.960938 L 36.125 -23.757812 L 36.125 -19.308594 L 25.082031 -19.308594 L 25.082031 -23.757812 L 28.277344 -20.660156 L 18.199219 -10.265625 L 8.101562 -20.65625 L 11.292969 -23.757812 L 11.292969 -19.308594 L 0.25 -19.308594 L 0.25 -23.757812 L 3.335938 -26.960938 L 17.664062 -13.148438 L 17.664062 0 L 13.210938 0 L 13.210938 -4.449219 Z M 23.179688 -4.449219 "/></g></g></g><g fill="#000000" fill-opacity="1"><g transform="translate(46.044811, 141.12268)"><g><path d="M 17.964844 4.964844 C 10.980469 4.964844 5.683594 3.390625 2.074219 0.242188 C 0.332031 -1.28125 -0.980469 -3.089844 -1.859375 -5.179688 C -2.703125 -7.1875 -3.125 -9.414062 -3.125 -11.855469 C -3.125 -14.300781 -2.703125 -16.527344 -1.859375 -18.539062 C -0.980469 -20.632812 0.328125 -22.441406 2.070312 -23.964844 C 5.683594 -27.113281 10.980469 -28.6875 17.964844 -28.6875 C 21.796875 -28.6875 25.054688 -28.234375 27.734375 -27.328125 C 30.628906 -26.347656 32.957031 -24.957031 34.71875 -23.148438 C 36.515625 -21.300781 37.75 -19.167969 38.414062 -16.742188 L 39.960938 -11.113281 L 21.191406 -11.113281 L 19.859375 -12.945312 C 19.789062 -13.042969 19.679688 -13.121094 19.53125 -13.183594 C 19.164062 -13.335938 18.640625 -13.414062 17.964844 -13.414062 C 17.316406 -13.414062 16.8125 -13.34375 16.445312 -13.199219 C 16.28125 -13.136719 16.160156 -13.058594 16.082031 -12.964844 C 15.976562 -12.832031 15.894531 -12.683594 15.839844 -12.523438 C 15.773438 -12.335938 15.742188 -12.113281 15.742188 -11.855469 C 15.742188 -11.597656 15.773438 -11.378906 15.835938 -11.195312 C 15.890625 -11.042969 15.972656 -10.894531 16.089844 -10.753906 C 16.164062 -10.664062 16.28125 -10.589844 16.445312 -10.527344 C 16.8125 -10.382812 17.316406 -10.3125 17.964844 -10.3125 C 18.765625 -10.3125 19.445312 -10.34375 20.003906 -10.410156 C 20.414062 -10.457031 20.710938 -10.511719 20.890625 -10.574219 C 21.074219 -10.636719 21.203125 -10.691406 21.28125 -10.742188 C 21.226562 -10.707031 21.15625 -10.640625 21.074219 -10.539062 L 24.488281 -7.683594 L 24.488281 -3.230469 L 16.144531 -3.230469 L 16.144531 -16.304688 L 38.574219 -16.304688 L 38.574219 4.46875 L 26.875 4.46875 L 24.960938 -0.75 L 29.140625 -2.285156 L 31.707031 1.347656 C 28.300781 3.757812 23.71875 4.964844 17.964844 4.964844 Z M 17.964844 -3.9375 C 20.003906 -3.9375 21.777344 -4.125 23.285156 -4.503906 C 24.609375 -4.835938 25.703125 -5.308594 26.570312 -5.917969 L 31.316406 -9.273438 L 34.160156 -1.515625 L 29.984375 0.015625 L 29.984375 -4.433594 L 34.121094 -4.433594 L 34.121094 0.015625 L 29.671875 0.015625 L 29.671875 -11.855469 L 34.121094 -11.855469 L 34.121094 -7.402344 L 20.597656 -7.402344 L 20.597656 -11.855469 L 25.046875 -11.855469 L 25.046875 -7.683594 L 20.597656 -7.683594 L 20.597656 -12.132812 L 34.011719 -12.132812 L 27.898438 -4.824219 C 26.917969 -3.652344 25.550781 -2.761719 23.792969 -2.15625 C 23 -1.882812 22.074219 -1.6875 21.023438 -1.566406 C 20.125 -1.460938 19.105469 -1.410156 17.964844 -1.410156 C 16.203125 -1.410156 14.621094 -1.683594 13.214844 -2.230469 C 11.609375 -2.855469 10.273438 -3.816406 9.207031 -5.109375 C 8.417969 -6.070312 7.824219 -7.128906 7.425781 -8.285156 C 7.035156 -9.410156 6.839844 -10.597656 6.839844 -11.855469 C 6.839844 -13.105469 7.035156 -14.296875 7.421875 -15.421875 C 7.820312 -16.574219 8.417969 -17.644531 9.214844 -18.625 C 10.273438 -19.910156 11.609375 -20.867188 13.214844 -21.492188 C 14.621094 -22.042969 16.203125 -22.316406 17.964844 -22.316406 C 19.835938 -22.316406 21.503906 -22.007812 22.96875 -21.394531 C 24.652344 -20.691406 26.015625 -19.617188 27.0625 -18.179688 L 23.460938 -15.5625 L 23.460938 -20.011719 L 34.121094 -20.011719 L 34.121094 -15.5625 L 29.832031 -14.382812 C 29.570312 -15.335938 29.074219 -16.1875 28.34375 -16.933594 C 27.578125 -17.722656 26.425781 -18.375 24.882812 -18.898438 C 23.125 -19.492188 20.820312 -19.789062 17.964844 -19.789062 C 15.433594 -19.789062 13.285156 -19.539062 11.515625 -19.046875 C 10.003906 -18.621094 8.804688 -18.027344 7.929688 -17.261719 C 7.222656 -16.644531 6.695312 -15.921875 6.347656 -15.09375 C 5.964844 -14.1875 5.773438 -13.105469 5.773438 -11.855469 C 5.773438 -10.609375 5.964844 -9.535156 6.347656 -8.628906 C 6.691406 -7.804688 7.21875 -7.082031 7.925781 -6.464844 C 8.804688 -5.699219 10.003906 -5.101562 11.515625 -4.679688 C 13.285156 -4.183594 15.433594 -3.9375 17.964844 -3.9375 Z M 17.964844 -3.9375 "/></g></g></g><g fill="#000000" fill-opacity="1"><g transform="translate(82.152376, 141.12268)"><g><path d="M 17.964844 4.964844 C 10.980469 4.964844 5.683594 3.390625 2.074219 0.242188 C 0.328125 -1.285156 -0.980469 -3.09375 -1.859375 -5.1875 C -2.703125 -7.195312 -3.125 -9.425781 -3.125 -11.871094 C -3.125 -14.3125 -2.703125 -16.539062 -1.859375 -18.546875 C -0.980469 -20.636719 0.328125 -22.441406 2.070312 -23.964844 C 5.683594 -27.113281 10.980469 -28.6875 17.964844 -28.6875 C 24.949219 -28.6875 30.246094 -27.113281 33.851562 -23.964844 C 35.597656 -22.441406 36.90625 -20.636719 37.785156 -18.546875 C 38.628906 -16.539062 39.054688 -14.3125 39.054688 -11.871094 C 39.054688 -9.425781 38.632812 -7.195312 37.789062 -5.1875 C 36.910156 -3.09375 35.597656 -1.285156 33.855469 0.238281 C 30.246094 3.390625 24.949219 4.964844 17.964844 4.964844 Z M 17.964844 -3.9375 C 20.492188 -3.9375 22.640625 -4.183594 24.410156 -4.679688 C 25.925781 -5.101562 27.121094 -5.699219 28 -6.464844 C 28.707031 -7.082031 29.234375 -7.804688 29.578125 -8.628906 C 29.960938 -9.539062 30.152344 -10.621094 30.152344 -11.871094 C 30.152344 -13.117188 29.960938 -14.191406 29.582031 -15.097656 C 29.234375 -15.921875 28.707031 -16.640625 28 -17.257812 C 27.121094 -18.027344 25.925781 -18.621094 24.410156 -19.046875 C 22.640625 -19.539062 20.492188 -19.789062 17.964844 -19.789062 C 15.433594 -19.789062 13.285156 -19.539062 11.515625 -19.046875 C 10.003906 -18.621094 8.804688 -18.027344 7.929688 -17.261719 C 7.21875 -16.640625 6.691406 -15.921875 6.347656 -15.097656 C 5.964844 -14.191406 5.773438 -13.117188 5.773438 -11.871094 C 5.773438 -10.621094 5.964844 -9.539062 6.347656 -8.628906 C 6.695312 -7.804688 7.21875 -7.082031 7.925781 -6.464844 C 8.804688 -5.699219 10.003906 -5.101562 11.515625 -4.679688 C 13.285156 -4.183594 15.433594 -3.9375 17.964844 -3.9375 Z M 17.964844 -10.3125 C 18.609375 -10.3125 19.109375 -10.382812 19.472656 -10.523438 C 19.628906 -10.585938 19.742188 -10.660156 19.8125 -10.746094 C 19.929688 -10.886719 20.015625 -11.039062 20.070312 -11.203125 C 20.136719 -11.386719 20.167969 -11.613281 20.167969 -11.871094 C 20.167969 -12.128906 20.136719 -12.347656 20.074219 -12.53125 C 20.019531 -12.683594 19.9375 -12.832031 19.820312 -12.972656 C 19.738281 -13.074219 19.617188 -13.15625 19.460938 -13.21875 C 19.101562 -13.359375 18.601562 -13.429688 17.964844 -13.429688 C 17.320312 -13.429688 16.820312 -13.359375 16.457031 -13.214844 C 16.292969 -13.152344 16.171875 -13.074219 16.09375 -12.976562 C 15.976562 -12.832031 15.890625 -12.683594 15.835938 -12.53125 C 15.773438 -12.347656 15.742188 -12.128906 15.742188 -11.871094 C 15.742188 -11.613281 15.773438 -11.386719 15.839844 -11.203125 C 15.894531 -11.039062 15.980469 -10.886719 16.105469 -10.734375 C 16.167969 -10.660156 16.28125 -10.589844 16.445312 -10.527344 C 16.8125 -10.382812 17.316406 -10.3125 17.964844 -10.3125 Z M 17.964844 -1.410156 C 16.203125 -1.410156 14.621094 -1.683594 13.214844 -2.230469 C 11.609375 -2.855469 10.269531 -3.820312 9.195312 -5.125 C 8.410156 -6.089844 7.820312 -7.148438 7.421875 -8.300781 C 7.035156 -9.429688 6.839844 -10.617188 6.839844 -11.871094 C 6.839844 -13.125 7.035156 -14.316406 7.425781 -15.441406 C 7.824219 -16.597656 8.417969 -17.652344 9.203125 -18.613281 C 10.261719 -19.90625 11.597656 -20.871094 13.203125 -21.503906 C 14.613281 -22.054688 16.199219 -22.332031 17.964844 -22.332031 C 19.730469 -22.332031 21.316406 -22.054688 22.722656 -21.5 C 24.332031 -20.867188 25.660156 -19.90625 26.703125 -18.617188 C 27.492188 -17.65625 28.085938 -16.597656 28.484375 -15.441406 C 28.875 -14.316406 29.070312 -13.125 29.070312 -11.871094 C 29.070312 -10.617188 28.875 -9.429688 28.488281 -8.300781 C 28.089844 -7.148438 27.496094 -6.085938 26.710938 -5.117188 C 25.652344 -3.824219 24.320312 -2.863281 22.710938 -2.234375 C 21.308594 -1.683594 19.726562 -1.410156 17.964844 -1.410156 Z M 17.964844 -1.410156 "/></g></g></g><g fill="#000000" fill-opacity="1"><g transform="translate(115.42883, 141.12268)"><g><path d="M 39.902344 4.449219 L 27.226562 4.449219 L 23.707031 -1.671875 L 27.566406 -3.890625 L 27.566406 0.558594 L 12.582031 0.558594 L 12.582031 -3.890625 L 16.441406 -1.671875 L 12.921875 4.449219 L -7.886719 4.449219 L 13.011719 -28.191406 L 27.136719 -28.191406 L 48.035156 4.449219 Z M 39.902344 -4.449219 L 39.902344 0 L 36.152344 2.398438 L 20.953125 -21.34375 L 24.703125 -23.742188 L 24.703125 -19.289062 L 15.445312 -19.289062 L 15.445312 -23.742188 L 19.195312 -21.34375 L 3.996094 2.398438 L 0.25 0 L 0.25 -4.449219 L 10.347656 -4.449219 L 10.347656 0 L 6.488281 -2.21875 L 10.007812 -8.339844 L 30.140625 -8.339844 L 33.660156 -2.21875 L 29.800781 0 L 29.800781 -4.449219 Z M 20.34375 -7.558594 L 16.21875 -14.757812 L 20.082031 -16.96875 L 23.941406 -14.753906 L 19.800781 -7.550781 L 15.945312 -9.769531 L 15.945312 -14.21875 L 24.207031 -14.21875 L 24.207031 -9.769531 Z M 31.882812 -5.316406 L 8.253906 -5.316406 L 20.089844 -25.914062 L 28.066406 -11.980469 Z M 31.882812 -5.316406 "/></g></g></g><g fill="#000000" fill-opacity="1"><g transform="translate(155.575939, 141.12268)"><g><path d="M 30.378906 4.449219 L -1.800781 4.449219 L -1.800781 -28.207031 L 17.066406 -28.207031 L 17.066406 -5.878906 L 12.617188 -5.878906 L 12.617188 -10.328125 L 34.832031 -10.328125 L 34.832031 4.449219 Z M 30.378906 -4.449219 L 30.378906 0 L 25.929688 0 L 25.929688 -5.878906 L 30.378906 -5.878906 L 30.378906 -1.425781 L 8.164062 -1.425781 L 8.164062 -23.757812 L 12.617188 -23.757812 L 12.617188 -19.308594 L 2.648438 -19.308594 L 2.648438 -23.757812 L 7.097656 -23.757812 L 7.097656 0 L 2.648438 0 L 2.648438 -4.449219 Z M 30.378906 -4.449219 "/></g></g></g><g fill="#000000" fill-opacity="1"><g transform="translate(186.617519, 141.12268)"><g><path d="M 15.695312 4.964844 C 11.976562 4.964844 8.898438 4.535156 6.457031 3.675781 C 3.734375 2.722656 1.597656 1.332031 0.0507812 -0.488281 C -1.449219 -2.253906 -2.457031 -4.285156 -2.96875 -6.578125 L -4.183594 -12 L 14.277344 -12 L 15.605469 -10.09375 C 15.53125 -10.203125 15.429688 -10.285156 15.308594 -10.339844 C 15.296875 -10.34375 15.289062 -10.347656 15.28125 -10.351562 C 15.292969 -10.347656 15.308594 -10.34375 15.332031 -10.339844 C 15.425781 -10.320312 15.546875 -10.3125 15.695312 -10.3125 C 15.84375 -10.3125 15.964844 -10.320312 16.058594 -10.339844 C 16.082031 -10.34375 16.097656 -10.347656 16.109375 -10.351562 C 16.101562 -10.347656 16.09375 -10.34375 16.082031 -10.339844 C 15.960938 -10.285156 15.859375 -10.203125 15.785156 -10.09375 L 19.4375 -7.550781 L 15.621094 -9.839844 C 15.484375 -9.617188 15.375 -9.375 15.289062 -9.113281 C 15.152344 -8.707031 15.085938 -8.285156 15.085938 -7.847656 C 15.085938 -7.375 15.164062 -6.917969 15.320312 -6.472656 C 15.460938 -6.074219 15.660156 -5.707031 15.914062 -5.371094 C 16.234375 -4.949219 16.613281 -4.613281 17.046875 -4.367188 C 17.222656 -4.269531 17.382812 -4.195312 17.535156 -4.148438 C 17.554688 -4.140625 17.570312 -4.136719 17.578125 -4.132812 C 17.566406 -4.136719 17.550781 -4.140625 17.527344 -4.144531 C 16.9375 -4.257812 15.960938 -4.34375 14.597656 -4.414062 C 12.480469 -4.507812 10.253906 -4.730469 7.921875 -5.085938 C 4.707031 -5.585938 2.183594 -6.570312 0.351562 -8.042969 C -0.78125 -8.953125 -1.644531 -10.035156 -2.242188 -11.285156 C -2.832031 -12.527344 -3.125 -13.875 -3.125 -15.332031 C -3.125 -15.761719 -3.101562 -16.207031 -3.050781 -16.667969 L -3.023438 -16.910156 L -2.96875 -17.148438 C -2.457031 -19.441406 -1.449219 -21.46875 0.0507812 -23.238281 C 1.597656 -25.058594 3.734375 -26.445312 6.457031 -27.402344 C 8.898438 -28.261719 11.976562 -28.6875 15.695312 -28.6875 C 19.414062 -28.6875 22.492188 -28.261719 24.933594 -27.402344 C 27.65625 -26.445312 29.792969 -25.058594 31.339844 -23.238281 C 32.839844 -21.46875 33.847656 -19.441406 34.359375 -17.148438 L 35.574219 -11.726562 L 17.113281 -11.726562 L 15.785156 -13.632812 C 15.859375 -13.523438 15.960938 -13.441406 16.082031 -13.386719 C 16.09375 -13.378906 16.101562 -13.375 16.109375 -13.375 C 16.097656 -13.378906 16.082031 -13.382812 16.058594 -13.386719 C 15.964844 -13.40625 15.84375 -13.414062 15.695312 -13.414062 C 15.546875 -13.414062 15.425781 -13.40625 15.332031 -13.386719 C 15.308594 -13.382812 15.292969 -13.378906 15.28125 -13.375 C 15.289062 -13.375 15.296875 -13.378906 15.308594 -13.386719 C 15.429688 -13.441406 15.53125 -13.523438 15.605469 -13.632812 L 11.953125 -16.175781 L 15.726562 -13.816406 C 15.886719 -14.070312 16.015625 -14.347656 16.113281 -14.640625 C 16.253906 -15.054688 16.320312 -15.484375 16.320312 -15.925781 C 16.320312 -16.441406 16.230469 -16.9375 16.046875 -17.417969 C 15.886719 -17.835938 15.664062 -18.21875 15.382812 -18.5625 C 15.042969 -18.976562 14.648438 -19.300781 14.203125 -19.53125 C 14.03125 -19.621094 13.871094 -19.6875 13.726562 -19.726562 C 13.707031 -19.734375 13.695312 -19.738281 13.6875 -19.738281 C 13.699219 -19.734375 13.71875 -19.734375 13.742188 -19.726562 C 14.34375 -19.628906 15.300781 -19.539062 16.617188 -19.460938 C 18.175781 -19.367188 19.832031 -19.214844 21.585938 -19.003906 C 23.558594 -18.769531 25.417969 -18.355469 27.164062 -17.765625 C 29.390625 -17.011719 31.179688 -15.84375 32.527344 -14.257812 C 33.210938 -13.46875 33.726562 -12.570312 34.070312 -11.554688 C 34.390625 -10.617188 34.550781 -9.621094 34.550781 -8.558594 C 34.550781 -8.007812 34.503906 -7.445312 34.414062 -6.863281 L 34.390625 -6.71875 L 34.359375 -6.578125 C 33.847656 -4.285156 32.839844 -2.253906 31.339844 -0.488281 C 29.792969 1.332031 27.65625 2.722656 24.933594 3.675781 C 22.492188 4.535156 19.414062 4.964844 15.695312 4.964844 Z M 15.695312 -3.9375 C 18.402344 -3.9375 20.5 -4.199219 21.984375 -4.722656 C 23.191406 -5.144531 24.046875 -5.652344 24.554688 -6.25 C 25.105469 -6.902344 25.480469 -7.65625 25.671875 -8.523438 L 30.015625 -7.550781 L 25.621094 -8.238281 C 25.640625 -8.363281 25.648438 -8.46875 25.648438 -8.558594 C 25.648438 -8.617188 25.644531 -8.660156 25.640625 -8.695312 C 25.640625 -8.699219 25.640625 -8.703125 25.640625 -8.703125 C 25.640625 -8.695312 25.644531 -8.6875 25.648438 -8.679688 C 25.671875 -8.601562 25.707031 -8.539062 25.75 -8.492188 C 25.464844 -8.824219 24.984375 -9.105469 24.308594 -9.335938 C 23.152344 -9.726562 21.890625 -10.003906 20.53125 -10.167969 C 18.953125 -10.355469 17.46875 -10.492188 16.082031 -10.574219 C 14.453125 -10.671875 13.179688 -10.796875 12.269531 -10.949219 C 11.429688 -11.089844 10.710938 -11.316406 10.105469 -11.628906 C 9.46875 -11.960938 8.933594 -12.390625 8.5 -12.917969 C 8.171875 -13.320312 7.914062 -13.761719 7.730469 -14.246094 C 7.523438 -14.785156 7.421875 -15.347656 7.421875 -15.925781 C 7.421875 -16.855469 7.671875 -17.722656 8.179688 -18.535156 L 8.238281 -18.628906 L 8.300781 -18.71875 C 9.160156 -19.953125 10.277344 -20.878906 11.644531 -21.5 C 12.851562 -22.042969 14.203125 -22.316406 15.695312 -22.316406 C 17.1875 -22.316406 18.539062 -22.042969 19.746094 -21.5 C 21.113281 -20.878906 22.230469 -19.953125 23.089844 -18.71875 L 19.4375 -16.175781 L 19.4375 -20.625 L 30.015625 -20.625 L 30.015625 -16.175781 L 25.671875 -15.203125 C 25.480469 -16.066406 25.105469 -16.824219 24.554688 -17.476562 C 24.046875 -18.070312 23.191406 -18.582031 21.984375 -19.003906 C 20.5 -19.527344 18.402344 -19.789062 15.695312 -19.789062 C 12.988281 -19.789062 10.890625 -19.527344 9.40625 -19.003906 C 8.199219 -18.582031 7.34375 -18.070312 6.835938 -17.476562 C 6.285156 -16.824219 5.910156 -16.066406 5.71875 -15.203125 L 1.375 -16.175781 L 5.796875 -15.683594 C 5.78125 -15.550781 5.773438 -15.429688 5.773438 -15.332031 C 5.773438 -15.25 5.78125 -15.183594 5.792969 -15.132812 C 5.792969 -15.121094 5.796875 -15.109375 5.796875 -15.109375 C 5.800781 -15.105469 5.804688 -15.101562 5.808594 -15.09375 C 5.835938 -15.0625 5.875 -15.023438 5.929688 -14.980469 C 6.160156 -14.792969 6.503906 -14.617188 6.960938 -14.445312 C 7.589844 -14.214844 8.355469 -14.027344 9.261719 -13.886719 C 11.28125 -13.578125 13.207031 -13.382812 15.035156 -13.304688 C 16.808594 -13.214844 18.1875 -13.078125 19.179688 -12.890625 C 20.054688 -12.726562 20.808594 -12.464844 21.433594 -12.109375 C 22.066406 -11.753906 22.59375 -11.296875 23.011719 -10.742188 C 23.3125 -10.34375 23.546875 -9.90625 23.714844 -9.4375 C 23.894531 -8.921875 23.988281 -8.394531 23.988281 -7.847656 C 23.988281 -6.9375 23.742188 -6.074219 23.253906 -5.261719 L 23.175781 -5.128906 L 23.089844 -5.007812 C 22.230469 -3.773438 21.113281 -2.84375 19.746094 -2.226562 C 18.539062 -1.683594 17.1875 -1.410156 15.695312 -1.410156 C 14.203125 -1.410156 12.851562 -1.683594 11.644531 -2.226562 C 10.277344 -2.84375 9.160156 -3.773438 8.300781 -5.007812 L 11.953125 -7.550781 L 11.953125 -3.097656 L 1.375 -3.097656 L 1.375 -7.550781 L 5.71875 -8.523438 C 5.910156 -7.65625 6.285156 -6.902344 6.835938 -6.25 C 7.34375 -5.652344 8.199219 -5.144531 9.40625 -4.722656 C 10.890625 -4.199219 12.988281 -3.9375 15.695312 -3.9375 Z M 15.695312 -3.9375 "/></g></g></g><g fill="#ffffff" fill-opacity="1"><g transform="translate(88.622674, 93.998347)"><g><path d="M 47.8125 0 L 37.84375 0 L 37.84375 -15.15625 L 28.9375 0 L 21.5 0 L 12.609375 -15.15625 L 12.609375 0 L 2.65625 0 L 2.65625 -23.75 L 14.484375 -23.75 L 25.234375 -6.78125 L 35.953125 -23.75 L 47.8125 -23.75 Z M 47.8125 0 "/></g></g></g><g fill="#ffffff" fill-opacity="1"><g transform="translate(139.083858, 93.998347)"><g><path d="M 23.171875 0 L 13.21875 0 L 13.21875 -11.265625 L 0.25 -23.75 L 11.296875 -23.75 L 18.1875 -16.65625 L 25.078125 -23.75 L 36.125 -23.75 L 23.171875 -11.265625 Z M 23.171875 0 "/></g></g></g><g fill="#ffffff" fill-opacity="1"><g transform="translate(46.044811, 141.12268)"><g><path d="M 17.96875 0.515625 C 12.09375 0.515625 7.769531 -0.691406 5 -3.109375 C 2.550781 -5.253906 1.328125 -8.171875 1.328125 -11.859375 C 1.328125 -15.554688 2.550781 -18.472656 5 -20.609375 C 7.769531 -23.023438 12.09375 -24.234375 17.96875 -24.234375 C 21.3125 -24.234375 24.09375 -23.859375 26.3125 -23.109375 C 28.53125 -22.359375 30.269531 -21.332031 31.53125 -20.03125 C 32.789062 -18.738281 33.65625 -17.25 34.125 -15.5625 L 23.453125 -15.5625 C 22.335938 -17.09375 20.507812 -17.859375 17.96875 -17.859375 C 15.5625 -17.859375 13.789062 -17.171875 12.65625 -15.796875 C 11.75 -14.679688 11.296875 -13.367188 11.296875 -11.859375 C 11.296875 -10.335938 11.75 -9.03125 12.65625 -7.9375 C 13.789062 -6.550781 15.5625 -5.859375 17.96875 -5.859375 C 19.90625 -5.859375 21.363281 -6.023438 22.34375 -6.359375 C 23.320312 -6.703125 24.035156 -7.144531 24.484375 -7.6875 L 20.59375 -7.6875 L 20.59375 -11.859375 L 34.125 -11.859375 L 34.125 0.015625 L 29.984375 0.015625 L 29.140625 -2.28125 C 26.503906 -0.414062 22.78125 0.515625 17.96875 0.515625 Z M 17.96875 0.515625 "/></g></g></g><g fill="#ffffff" fill-opacity="1"><g transform="translate(82.152376, 141.12268)"><g><path d="M 17.96875 0.515625 C 12.09375 0.515625 7.769531 -0.691406 5 -3.109375 C 2.550781 -5.253906 1.328125 -8.175781 1.328125 -11.875 C 1.328125 -15.5625 2.550781 -18.472656 5 -20.609375 C 7.769531 -23.023438 12.09375 -24.234375 17.96875 -24.234375 C 23.832031 -24.234375 28.148438 -23.023438 30.921875 -20.609375 C 33.378906 -18.472656 34.609375 -15.5625 34.609375 -11.875 C 34.609375 -8.175781 33.378906 -5.253906 30.921875 -3.109375 C 28.148438 -0.691406 23.832031 0.515625 17.96875 0.515625 Z M 17.96875 -5.859375 C 20.375 -5.859375 22.140625 -6.550781 23.265625 -7.9375 C 24.171875 -9.050781 24.625 -10.363281 24.625 -11.875 C 24.625 -13.382812 24.171875 -14.691406 23.265625 -15.796875 C 22.140625 -17.179688 20.375 -17.875 17.96875 -17.875 C 15.5625 -17.875 13.789062 -17.179688 12.65625 -15.796875 C 11.75 -14.691406 11.296875 -13.382812 11.296875 -11.875 C 11.296875 -10.363281 11.75 -9.050781 12.65625 -7.9375 C 13.789062 -6.550781 15.5625 -5.859375 17.96875 -5.859375 Z M 17.96875 -5.859375 "/></g></g></g><g fill="#ffffff" fill-opacity="1"><g transform="translate(115.42883, 141.12268)"><g><path d="M 39.90625 0 L 29.796875 0 L 27.5625 -3.890625 L 12.578125 -3.890625 L 10.34375 0 L 0.25 0 L 15.453125 -23.734375 L 24.703125 -23.734375 Z M 24.203125 -9.765625 L 20.078125 -16.96875 L 15.9375 -9.765625 Z M 24.203125 -9.765625 "/></g></g></g><g fill="#ffffff" fill-opacity="1"><g transform="translate(155.575939, 141.12268)"><g><path d="M 30.375 0 L 2.65625 0 L 2.65625 -23.75 L 12.609375 -23.75 L 12.609375 -5.875 L 30.375 -5.875 Z M 30.375 0 "/></g></g></g><g fill="#ffffff" fill-opacity="1"><g transform="translate(186.617519, 141.12268)"><g><path d="M 15.6875 0.515625 C 12.476562 0.515625 9.890625 0.171875 7.921875 -0.515625 C 5.960938 -1.210938 4.46875 -2.164062 3.4375 -3.375 C 2.414062 -4.582031 1.726562 -5.972656 1.375 -7.546875 L 11.953125 -7.546875 C 12.734375 -6.421875 13.976562 -5.859375 15.6875 -5.859375 C 17.40625 -5.859375 18.65625 -6.421875 19.4375 -7.546875 C 19.5 -7.660156 19.53125 -7.757812 19.53125 -7.84375 C 19.53125 -8.144531 19.132812 -8.367188 18.34375 -8.515625 C 17.5625 -8.660156 16.382812 -8.773438 14.8125 -8.859375 C 12.84375 -8.941406 10.769531 -9.148438 8.59375 -9.484375 C 3.75 -10.234375 1.328125 -12.179688 1.328125 -15.328125 C 1.328125 -15.597656 1.34375 -15.878906 1.375 -16.171875 C 1.726562 -17.753906 2.414062 -19.148438 3.4375 -20.359375 C 4.46875 -21.566406 5.960938 -22.515625 7.921875 -23.203125 C 9.890625 -23.890625 12.476562 -24.234375 15.6875 -24.234375 C 18.90625 -24.234375 21.492188 -23.890625 23.453125 -23.203125 C 25.421875 -22.515625 26.914062 -21.566406 27.9375 -20.359375 C 28.96875 -19.148438 29.660156 -17.753906 30.015625 -16.171875 L 19.4375 -16.171875 C 18.65625 -17.296875 17.40625 -17.859375 15.6875 -17.859375 C 13.976562 -17.859375 12.734375 -17.296875 11.953125 -16.171875 C 11.898438 -16.085938 11.875 -16.003906 11.875 -15.921875 C 11.875 -15.660156 12.25 -15.46875 13 -15.34375 C 13.757812 -15.21875 14.875 -15.109375 16.34375 -15.015625 C 17.820312 -14.929688 19.394531 -14.785156 21.0625 -14.578125 C 22.726562 -14.378906 24.285156 -14.035156 25.734375 -13.546875 C 27.179688 -13.054688 28.316406 -12.332031 29.140625 -11.375 C 29.773438 -10.632812 30.09375 -9.695312 30.09375 -8.5625 C 30.09375 -8.238281 30.066406 -7.898438 30.015625 -7.546875 C 29.660156 -5.972656 28.96875 -4.582031 27.9375 -3.375 C 26.914062 -2.164062 25.421875 -1.210938 23.453125 -0.515625 C 21.492188 0.171875 18.90625 0.515625 15.6875 0.515625 Z M 15.6875 0.515625 "/></g></g></g><g clip-path="url(#3ea7f6ad40)"><g clip-path="url(#5768059f98)"><g transform="matrix(1, 0, 0, 1, 131, 133)"><g clip-path="url(#833adcdad6)"><g clip-path="url(#54d186f119)"><g clip-path="url(#28c26d87c8)"><path fill="#ffbd59" d="M 136.574219 0.828125 L 148.988281 14.816406 L 13.339844 135.21875 L 0.925781 121.234375 Z M 136.574219 0.828125 " fill-opacity="1" fill-rule="nonzero"/></g></g></g></g></g></g><g clip-path="url(#b0a07193b9)"><g clip-path="url(#113f6687e0)"><g clip-path="url(#7bd6ad59d4)"><path stroke-linecap="butt" transform="matrix(0.496544, 0.559425, -0.559425, 0.496544, 267.575215, 133.829844)" fill="none" stroke-linejoin="miter" d="M -0.00260282 -0.000529543 L 25.000471 0.00136013 L 24.999951 242.451318 L 0.000782991 242.452895 Z M -0.00260282 -0.000529543 " stroke="#000000" stroke-width="6" stroke-opacity="1" stroke-miterlimit="4"/></g></g></g><g clip-path="url(#721db1dedc)"><g clip-path="url(#3ee149354d)"><g clip-path="url(#be7c7ce219)"><g transform="matrix(1, 0, 0, 1, 124, 254)"><g clip-path="url(#5d2fa8e19e)"><g clip-path="url(#55d2ba926f)"><g clip-path="url(#211e9724e4)"><g clip-path="url(#569dfecac9)"><path fill="#545454" d="M 7.941406 0.21875 L 20.347656 14.199219 L 6.6875 26.320312 L -5.71875 12.34375 Z M 7.941406 0.21875 " fill-opacity="1" fill-rule="nonzero"/></g></g></g></g></g></g></g></g><g clip-path="url(#dbb9c33ae2)"><g clip-path="url(#49dc6bfd30)"><g clip-path="url(#5b24a4ee45)"><g clip-path="url(#ed89b2d306)"><path stroke-linecap="butt" transform="matrix(0.496544, 0.559425, -0.559425, 0.496544, 131.942454, 254.221791)" fill="none" stroke-linejoin="miter" d="M 12.495467 24.408657 L -0.0000639294 0.00181537 L 24.991733 0.000676219 Z M 12.495467 24.408657 " stroke="#000000" stroke-width="6" stroke-opacity="1" stroke-miterlimit="4"/></g></g></g></g><g clip-path="url(#39e6fd5dc6)"><path stroke-linecap="butt" transform="matrix(-0.559425, 0.496544, -0.496544, -0.559425, 274.775088, 141.941508)" fill="none" stroke-linejoin="miter" d="M 0.00213545 1.999105 L 240.265913 2.000325 " stroke="#000000" stroke-width="4" stroke-opacity="1" stroke-miterlimit="4"/></g><g clip-path="url(#14e879396d)"><g clip-path="url(#af44189bee)"><g transform="matrix(1, 0, 0, 1, 267, 126)"><g clip-path="url(#c39badd9c2)"><g clip-path="url(#16b7f73591)"><g clip-path="url(#3f1bbca8cd)"><path fill="#ff66c4" d="M 8.429688 0.859375 L 20.847656 14.847656 L 12.992188 21.820312 L 0.574219 7.828125 Z M 8.429688 0.859375 " fill-opacity="1" fill-rule="nonzero"/></g></g></g></g></g></g><g clip-path="url(#8dc4d21987)"><g clip-path="url(#68a8cb1b98)"><g clip-path="url(#633aa865cc)"><path stroke-linecap="butt" transform="matrix(0.496544, 0.559425, -0.559425, 0.496544, 275.433332, 126.862686)" fill="none" stroke-linejoin="miter" d="M 0.000827275 0.000267141 L 24.985252 -0.000433 L 24.984981 14.034387 L -0.00334873 14.03162 Z M 0.000827275 0.000267141 " stroke="#000000" stroke-width="6" stroke-opacity="1" stroke-miterlimit="4"/></g></g></g></svg>