<svg xmlns="http://www.w3.org/2000/svg" xmlns:xlink="http://www.w3.org/1999/xlink" width="131" zoomAndPan="magnify" viewBox="0 0 98.25 227.999994" height="304" preserveAspectRatio="xMidYMid meet" version="1.0"><defs><clipPath id="9673811912"><path d="M 0 0.863281 L 97.503906 0.863281 L 97.503906 227 L 0 227 Z M 0 0.863281 " clip-rule="nonzero"/></clipPath><clipPath id="dded03467f"><path d="M 13.546875 100.8125 L 83.742188 100.8125 L 83.742188 226.667969 L 13.546875 226.667969 Z M 13.546875 100.8125 " clip-rule="nonzero"/></clipPath><clipPath id="6b24f45d38"><path d="M 83.742188 135.910156 L 83.742188 191.335938 C 83.742188 200.644531 80.042969 209.570312 73.460938 216.152344 C 66.878906 222.734375 57.953125 226.433594 48.644531 226.433594 C 39.335938 226.433594 30.410156 222.734375 23.828125 216.152344 C 17.246094 209.570312 13.546875 200.644531 13.546875 191.335938 L 13.546875 135.910156 C 13.546875 126.601562 17.246094 117.675781 23.828125 111.09375 C 30.410156 104.511719 39.335938 100.8125 48.644531 100.8125 C 57.953125 100.8125 66.878906 104.511719 73.460938 111.09375 C 80.042969 117.675781 83.742188 126.601562 83.742188 135.910156 Z M 83.742188 135.910156 " clip-rule="nonzero"/></clipPath><clipPath id="b11cda69fd"><path d="M 0.546875 0.8125 L 70.742188 0.8125 L 70.742188 126.660156 L 0.546875 126.660156 Z M 0.546875 0.8125 " clip-rule="nonzero"/></clipPath><clipPath id="f34dfa12fa"><path d="M 70.742188 35.910156 L 70.742188 91.335938 C 70.742188 100.644531 67.042969 109.570312 60.460938 116.152344 C 53.878906 122.734375 44.953125 126.433594 35.644531 126.433594 C 26.335938 126.433594 17.410156 122.734375 10.828125 116.152344 C 4.246094 109.570312 0.546875 100.644531 0.546875 91.335938 L 0.546875 35.910156 C 0.546875 26.601562 4.246094 17.675781 10.828125 11.09375 C 17.410156 4.511719 26.335938 0.8125 35.644531 0.8125 C 44.953125 0.8125 53.878906 4.511719 60.460938 11.09375 C 67.042969 17.675781 70.742188 26.601562 70.742188 35.910156 Z M 70.742188 35.910156 " clip-rule="nonzero"/></clipPath><clipPath id="057b7aca17"><rect x="0" width="71" y="0" height="127"/></clipPath><clipPath id="e4cdb9c039"><path d="M 0 0.863281 L 97.289062 0.863281 L 97.289062 116 L 0 116 Z M 0 0.863281 " clip-rule="nonzero"/></clipPath><clipPath id="09bdba29aa"><path d="M 48.644531 0.863281 C 21.777344 0.863281 0 26.589844 0 58.328125 C 0 90.0625 21.777344 115.789062 48.644531 115.789062 C 75.511719 115.789062 97.289062 90.0625 97.289062 58.328125 C 97.289062 26.589844 75.511719 0.863281 48.644531 0.863281 Z M 48.644531 0.863281 " clip-rule="nonzero"/></clipPath><clipPath id="aed76e505a"><path d="M 0 0.863281 L 97.289062 0.863281 L 97.289062 115.90625 L 0 115.90625 Z M 0 0.863281 " clip-rule="nonzero"/></clipPath><clipPath id="38a124b4e3"><path d="M 48.644531 0.863281 C 21.777344 0.863281 0 26.589844 0 58.328125 C 0 90.0625 21.777344 115.789062 48.644531 115.789062 C 75.511719 115.789062 97.289062 90.0625 97.289062 58.328125 C 97.289062 26.589844 75.511719 0.863281 48.644531 0.863281 Z M 48.644531 0.863281 " clip-rule="nonzero"/></clipPath><clipPath id="a4be0fc07c"><rect x="0" width="98" y="0" height="116"/></clipPath><clipPath id="3e10bef5d2"><path d="M 13.546875 21.746094 L 33.847656 21.746094 L 33.847656 42.046875 L 13.546875 42.046875 Z M 13.546875 21.746094 " clip-rule="nonzero"/></clipPath><clipPath id="8ef9928af2"><path d="M 23.699219 21.746094 C 18.09375 21.746094 13.546875 26.292969 13.546875 31.898438 C 13.546875 37.503906 18.09375 42.046875 23.699219 42.046875 C 29.304688 42.046875 33.847656 37.503906 33.847656 31.898438 C 33.847656 26.292969 29.304688 21.746094 23.699219 21.746094 Z M 23.699219 21.746094 " clip-rule="nonzero"/></clipPath><clipPath id="72ce54a9dc"><path d="M 0.546875 0.746094 L 20.847656 0.746094 L 20.847656 21.046875 L 0.546875 21.046875 Z M 0.546875 0.746094 " clip-rule="nonzero"/></clipPath><clipPath id="64da9a82b1"><path d="M 10.699219 0.746094 C 5.09375 0.746094 0.546875 5.292969 0.546875 10.898438 C 0.546875 16.503906 5.09375 21.046875 10.699219 21.046875 C 16.304688 21.046875 20.847656 16.503906 20.847656 10.898438 C 20.847656 5.292969 16.304688 0.746094 10.699219 0.746094 Z M 10.699219 0.746094 " clip-rule="nonzero"/></clipPath><clipPath id="0b500b187f"><rect x="0" width="21" y="0" height="22"/></clipPath><clipPath id="dd8daefaf3"><path d="M 59.519531 51.257812 L 81.230469 51.257812 L 81.230469 58.328125 L 59.519531 58.328125 Z M 59.519531 51.257812 " clip-rule="nonzero"/></clipPath><clipPath id="4d4ac3abf8"><path d="M 0.519531 0.257812 L 22.230469 0.257812 L 22.230469 7.328125 L 0.519531 7.328125 Z M 0.519531 0.257812 " clip-rule="nonzero"/></clipPath><clipPath id="ebeba90147"><rect x="0" width="23" y="0" height="8"/></clipPath><clipPath id="1c67ed2af9"><path d="M 13.546875 51.257812 L 35.261719 51.257812 L 35.261719 58.328125 L 13.546875 58.328125 Z M 13.546875 51.257812 " clip-rule="nonzero"/></clipPath><clipPath id="efdb66468a"><path d="M 0.546875 0.257812 L 22.261719 0.257812 L 22.261719 7.328125 L 0.546875 7.328125 Z M 0.546875 0.257812 " clip-rule="nonzero"/></clipPath><clipPath id="3add8d4438"><rect x="0" width="23" y="0" height="8"/></clipPath><clipPath id="88a4d71979"><path d="M 14.253906 58.328125 L 24.402344 58.328125 L 24.402344 68.476562 L 14.253906 68.476562 Z M 14.253906 58.328125 " clip-rule="nonzero"/></clipPath><clipPath id="0db48cfa25"><path d="M 0.253906 0.328125 L 10.402344 0.328125 L 10.402344 10.476562 L 0.253906 10.476562 Z M 0.253906 0.328125 " clip-rule="nonzero"/></clipPath><clipPath id="928dd17727"><rect x="0" width="11" y="0" height="11"/></clipPath><clipPath id="39acee2003"><path d="M 60.226562 58.328125 L 70.375 58.328125 L 70.375 68.476562 L 60.226562 68.476562 Z M 60.226562 58.328125 " clip-rule="nonzero"/></clipPath><clipPath id="e275568d61"><path d="M 0.226562 0.328125 L 10.375 0.328125 L 10.375 10.476562 L 0.226562 10.476562 Z M 0.226562 0.328125 " clip-rule="nonzero"/></clipPath><clipPath id="c31657dea2"><rect x="0" width="11" y="0" height="11"/></clipPath><clipPath id="14e60030f5"><rect x="0" width="98" y="0" height="227"/></clipPath></defs><g clip-path="url(#9673811912)"><g transform="matrix(1, 0, 0, 1, 0, 0.00000000000001843)"><g clip-path="url(#14e60030f5)"><g clip-path="url(#dded03467f)"><g clip-path="url(#6b24f45d38)"><g transform="matrix(1, 0, 0, 1, 13, 100)"><g clip-path="url(#057b7aca17)"><g clip-path="url(#b11cda69fd)"><g clip-path="url(#f34dfa12fa)"><path fill="#cb6ce6" d="M 0.546875 0.8125 L 70.742188 0.8125 L 70.742188 126.394531 L 0.546875 126.394531 Z M 0.546875 0.8125 " fill-opacity="1" fill-rule="nonzero"/></g></g></g></g></g></g><g clip-path="url(#e4cdb9c039)"><g clip-path="url(#09bdba29aa)"><g transform="matrix(1, 0, 0, 1, 0, 0.00000000000001843)"><g clip-path="url(#a4be0fc07c)"><g clip-path="url(#aed76e505a)"><g clip-path="url(#38a124b4e3)"><path fill="#f5e1c1" d="M 0 0.863281 L 97.289062 0.863281 L 97.289062 115.636719 L 0 115.636719 Z M 0 0.863281 " fill-opacity="1" fill-rule="nonzero"/></g></g></g></g></g></g><g clip-path="url(#3e10bef5d2)"><g clip-path="url(#8ef9928af2)"><g transform="matrix(1, 0, 0, 1, 13, 21)"><g clip-path="url(#0b500b187f)"><g clip-path="url(#72ce54a9dc)"><g clip-path="url(#64da9a82b1)"><path fill="#ffffff" d="M 0.546875 0.746094 L 20.847656 0.746094 L 20.847656 21.046875 L 0.546875 21.046875 Z M 0.546875 0.746094 " fill-opacity="1" fill-rule="nonzero"/></g></g></g></g></g></g><g clip-path="url(#dd8daefaf3)"><g transform="matrix(1, 0, 0, 1, 59, 51)"><g clip-path="url(#ebeba90147)"><g clip-path="url(#4d4ac3abf8)"><path fill="#ffde59" d="M 0.519531 0.257812 L 22.222656 0.257812 L 22.222656 7.328125 L 0.519531 7.328125 Z M 0.519531 0.257812 " fill-opacity="1" fill-rule="nonzero"/></g></g></g></g><g clip-path="url(#1c67ed2af9)"><g transform="matrix(1, 0, 0, 1, 13, 51)"><g clip-path="url(#3add8d4438)"><g clip-path="url(#efdb66468a)"><path fill="#ffde59" d="M 0.546875 0.257812 L 22.25 0.257812 L 22.25 7.328125 L 0.546875 7.328125 Z M 0.546875 0.257812 " fill-opacity="1" fill-rule="nonzero"/></g></g></g></g><g clip-path="url(#88a4d71979)"><g transform="matrix(1, 0, 0, 1, 14, 58)"><g clip-path="url(#928dd17727)"><g clip-path="url(#0db48cfa25)"><path fill="#000000" d="M 0.253906 0.328125 L 10.402344 0.328125 L 10.402344 10.476562 L 0.253906 10.476562 Z M 0.253906 0.328125 " fill-opacity="1" fill-rule="nonzero"/></g></g></g></g><g clip-path="url(#39acee2003)"><g transform="matrix(1, 0, 0, 1, 60, 58)"><g clip-path="url(#c31657dea2)"><g clip-path="url(#e275568d61)"><path fill="#000000" d="M 0.226562 0.328125 L 10.375 0.328125 L 10.375 10.476562 L 0.226562 10.476562 Z M 0.226562 0.328125 " fill-opacity="1" fill-rule="nonzero"/></g></g></g></g></g></g></g></svg>