<svg xmlns="http://www.w3.org/2000/svg" xmlns:xlink="http://www.w3.org/1999/xlink" width="407" zoomAndPan="magnify" viewBox="0 0 305.25 561.749982" height="749" preserveAspectRatio="xMidYMid meet" version="1.0"><defs><clipPath id="66b13bdf2a"><path d="M 79.222656 247.351562 L 254.113281 247.351562 L 254.113281 560.921875 L 79.222656 560.921875 Z M 79.222656 247.351562 " clip-rule="nonzero"/></clipPath><clipPath id="86040e80c6"><path d="M 254.113281 322.167969 L 254.113281 485.523438 C 254.113281 526.839844 220.617188 560.335938 179.296875 560.335938 L 154.039062 560.335938 C 112.71875 560.335938 79.222656 526.839844 79.222656 485.523438 L 79.222656 322.167969 C 79.222656 280.847656 112.71875 247.351562 154.039062 247.351562 L 179.296875 247.351562 C 220.617188 247.351562 254.113281 280.847656 254.113281 322.167969 Z M 254.113281 322.167969 " clip-rule="nonzero"/></clipPath><clipPath id="549017b7eb"><path d="M 0.222656 0.351562 L 175.113281 0.351562 L 175.113281 313.546875 L 0.222656 313.546875 Z M 0.222656 0.351562 " clip-rule="nonzero"/></clipPath><clipPath id="7df8a64d79"><path d="M 175.113281 75.167969 L 175.113281 238.523438 C 175.113281 279.839844 141.617188 313.335938 100.296875 313.335938 L 75.039062 313.335938 C 33.71875 313.335938 0.222656 279.839844 0.222656 238.523438 L 0.222656 75.167969 C 0.222656 33.847656 33.71875 0.351562 75.039062 0.351562 L 100.296875 0.351562 C 141.617188 0.351562 175.113281 33.847656 175.113281 75.167969 Z M 175.113281 75.167969 " clip-rule="nonzero"/></clipPath><clipPath id="ef1236168f"><rect x="0" width="176" y="0" height="314"/></clipPath><clipPath id="33489c996b"><path d="M 43.136719 35.003906 L 285.539062 35.003906 L 285.539062 277.40625 L 43.136719 277.40625 Z M 43.136719 35.003906 " clip-rule="nonzero"/></clipPath><clipPath id="bb9e7ceb4d"><path d="M 164.339844 35.003906 C 97.402344 35.003906 43.136719 89.265625 43.136719 156.203125 C 43.136719 223.140625 97.402344 277.40625 164.339844 277.40625 C 231.277344 277.40625 285.539062 223.140625 285.539062 156.203125 C 285.539062 89.265625 231.277344 35.003906 164.339844 35.003906 Z M 164.339844 35.003906 " clip-rule="nonzero"/></clipPath><clipPath id="19c4d8e9cf"><path d="M 0.136719 0.00390625 L 242.539062 0.00390625 L 242.539062 242.40625 L 0.136719 242.40625 Z M 0.136719 0.00390625 " clip-rule="nonzero"/></clipPath><clipPath id="d80efa8325"><path d="M 121.339844 0.00390625 C 54.402344 0.00390625 0.136719 54.265625 0.136719 121.203125 C 0.136719 188.140625 54.402344 242.40625 121.339844 242.40625 C 188.277344 242.40625 242.539062 188.140625 242.539062 121.203125 C 242.539062 54.265625 188.277344 0.00390625 121.339844 0.00390625 Z M 121.339844 0.00390625 " clip-rule="nonzero"/></clipPath><clipPath id="8464631ad8"><rect x="0" width="243" y="0" height="243"/></clipPath><clipPath id="36464e964d"><path d="M 0 139.292969 L 86.273438 139.292969 L 86.273438 225.566406 L 0 225.566406 Z M 0 139.292969 " clip-rule="nonzero"/></clipPath><clipPath id="9c6f9c536c"><path d="M 43.136719 139.292969 C 19.3125 139.292969 0 158.605469 0 182.429688 C 0 206.253906 19.3125 225.566406 43.136719 225.566406 C 66.960938 225.566406 86.273438 206.253906 86.273438 182.429688 C 86.273438 158.605469 66.960938 139.292969 43.136719 139.292969 Z M 43.136719 139.292969 " clip-rule="nonzero"/></clipPath><clipPath id="fc8a2cfefd"><path d="M 0 0.292969 L 86.273438 0.292969 L 86.273438 86.566406 L 0 86.566406 Z M 0 0.292969 " clip-rule="nonzero"/></clipPath><clipPath id="96ccc3026f"><path d="M 43.136719 0.292969 C 19.3125 0.292969 0 19.605469 0 43.429688 C 0 67.253906 19.3125 86.566406 43.136719 86.566406 C 66.960938 86.566406 86.273438 67.253906 86.273438 43.429688 C 86.273438 19.605469 66.960938 0.292969 43.136719 0.292969 Z M 43.136719 0.292969 " clip-rule="nonzero"/></clipPath><clipPath id="4129c90634"><rect x="0" width="87" y="0" height="87"/></clipPath><clipPath id="9a50a7985f"><path d="M 0 69.929688 L 86.273438 69.929688 L 86.273438 156.203125 L 0 156.203125 Z M 0 69.929688 " clip-rule="nonzero"/></clipPath><clipPath id="79ca6b2d24"><path d="M 43.136719 69.929688 C 19.3125 69.929688 0 89.246094 0 113.066406 C 0 136.890625 19.3125 156.203125 43.136719 156.203125 C 66.960938 156.203125 86.273438 136.890625 86.273438 113.066406 C 86.273438 89.246094 66.960938 69.929688 43.136719 69.929688 Z M 43.136719 69.929688 " clip-rule="nonzero"/></clipPath><clipPath id="2b0ac46785"><path d="M 0 0.929688 L 86.273438 0.929688 L 86.273438 87.203125 L 0 87.203125 Z M 0 0.929688 " clip-rule="nonzero"/></clipPath><clipPath id="f74d44cf51"><path d="M 43.136719 0.929688 C 19.3125 0.929688 0 20.246094 0 44.066406 C 0 67.890625 19.3125 87.203125 43.136719 87.203125 C 66.960938 87.203125 86.273438 67.890625 86.273438 44.066406 C 86.273438 20.246094 66.960938 0.929688 43.136719 0.929688 Z M 43.136719 0.929688 " clip-rule="nonzero"/></clipPath><clipPath id="171fb12696"><rect x="0" width="87" y="0" height="88"/></clipPath><clipPath id="87a57b40ad"><path d="M 28.261719 191.132812 L 114.535156 191.132812 L 114.535156 277.40625 L 28.261719 277.40625 Z M 28.261719 191.132812 " clip-rule="nonzero"/></clipPath><clipPath id="342763d1d1"><path d="M 71.398438 191.132812 C 47.574219 191.132812 28.261719 210.445312 28.261719 234.269531 C 28.261719 258.09375 47.574219 277.40625 71.398438 277.40625 C 95.222656 277.40625 114.535156 258.09375 114.535156 234.269531 C 114.535156 210.445312 95.222656 191.132812 71.398438 191.132812 Z M 71.398438 191.132812 " clip-rule="nonzero"/></clipPath><clipPath id="81fcce9fb8"><path d="M 0.261719 0.132812 L 86.535156 0.132812 L 86.535156 86.40625 L 0.261719 86.40625 Z M 0.261719 0.132812 " clip-rule="nonzero"/></clipPath><clipPath id="6d75b7764b"><path d="M 43.398438 0.132812 C 19.574219 0.132812 0.261719 19.445312 0.261719 43.269531 C 0.261719 67.09375 19.574219 86.40625 43.398438 86.40625 C 67.222656 86.40625 86.535156 67.09375 86.535156 43.269531 C 86.535156 19.445312 67.222656 0.132812 43.398438 0.132812 Z M 43.398438 0.132812 " clip-rule="nonzero"/></clipPath><clipPath id="3d27b927bc"><rect x="0" width="87" y="0" height="87"/></clipPath><clipPath id="f9a5740d36"><path d="M 43.136719 26.796875 L 129.410156 26.796875 L 129.410156 113.066406 L 43.136719 113.066406 Z M 43.136719 26.796875 " clip-rule="nonzero"/></clipPath><clipPath id="82d20bdfe0"><path d="M 86.273438 26.796875 C 62.449219 26.796875 43.136719 46.109375 43.136719 69.929688 C 43.136719 93.753906 62.449219 113.066406 86.273438 113.066406 C 110.097656 113.066406 129.410156 93.753906 129.410156 69.929688 C 129.410156 46.109375 110.097656 26.796875 86.273438 26.796875 Z M 86.273438 26.796875 " clip-rule="nonzero"/></clipPath><clipPath id="d104abb862"><path d="M 0.136719 0.796875 L 86.410156 0.796875 L 86.410156 87.066406 L 0.136719 87.066406 Z M 0.136719 0.796875 " clip-rule="nonzero"/></clipPath><clipPath id="3c4b7c9a60"><path d="M 43.273438 0.796875 C 19.449219 0.796875 0.136719 20.109375 0.136719 43.929688 C 0.136719 67.753906 19.449219 87.066406 43.273438 87.066406 C 67.097656 87.066406 86.410156 67.753906 86.410156 43.929688 C 86.410156 20.109375 67.097656 0.796875 43.273438 0.796875 Z M 43.273438 0.796875 " clip-rule="nonzero"/></clipPath><clipPath id="9b23a3f584"><rect x="0" width="87" y="0" height="88"/></clipPath><clipPath id="e16ccc91c5"><path d="M 102.933594 0.5625 L 189.207031 0.5625 L 189.207031 86.835938 L 102.933594 86.835938 Z M 102.933594 0.5625 " clip-rule="nonzero"/></clipPath><clipPath id="e5d8d00509"><path d="M 146.070312 0.5625 C 122.246094 0.5625 102.933594 19.875 102.933594 43.699219 C 102.933594 67.523438 122.246094 86.835938 146.070312 86.835938 C 169.894531 86.835938 189.207031 67.523438 189.207031 43.699219 C 189.207031 19.875 169.894531 0.5625 146.070312 0.5625 Z M 146.070312 0.5625 " clip-rule="nonzero"/></clipPath><clipPath id="c4cb272560"><path d="M 0.933594 0.5625 L 87.207031 0.5625 L 87.207031 86.835938 L 0.933594 86.835938 Z M 0.933594 0.5625 " clip-rule="nonzero"/></clipPath><clipPath id="07340ce1fe"><path d="M 44.070312 0.5625 C 20.246094 0.5625 0.933594 19.875 0.933594 43.699219 C 0.933594 67.523438 20.246094 86.835938 44.070312 86.835938 C 67.894531 86.835938 87.207031 67.523438 87.207031 43.699219 C 87.207031 19.875 67.894531 0.5625 44.070312 0.5625 Z M 44.070312 0.5625 " clip-rule="nonzero"/></clipPath><clipPath id="1963a961cf"><rect x="0" width="88" y="0" height="87"/></clipPath><clipPath id="8852681af3"><path d="M 174.890625 11.425781 L 261.164062 11.425781 L 261.164062 97.699219 L 174.890625 97.699219 Z M 174.890625 11.425781 " clip-rule="nonzero"/></clipPath><clipPath id="ac7011942f"><path d="M 218.027344 11.425781 C 194.203125 11.425781 174.890625 30.738281 174.890625 54.5625 C 174.890625 78.386719 194.203125 97.699219 218.027344 97.699219 C 241.851562 97.699219 261.164062 78.386719 261.164062 54.5625 C 261.164062 30.738281 241.851562 11.425781 218.027344 11.425781 Z M 218.027344 11.425781 " clip-rule="nonzero"/></clipPath><clipPath id="f7a631005b"><path d="M 0.890625 0.425781 L 87.164062 0.425781 L 87.164062 86.699219 L 0.890625 86.699219 Z M 0.890625 0.425781 " clip-rule="nonzero"/></clipPath><clipPath id="69651b9add"><path d="M 44.027344 0.425781 C 20.203125 0.425781 0.890625 19.738281 0.890625 43.5625 C 0.890625 67.386719 20.203125 86.699219 44.027344 86.699219 C 67.851562 86.699219 87.164062 67.386719 87.164062 43.5625 C 87.164062 19.738281 67.851562 0.425781 44.027344 0.425781 Z M 44.027344 0.425781 " clip-rule="nonzero"/></clipPath><clipPath id="3f801c271c"><rect x="0" width="88" y="0" height="87"/></clipPath><clipPath id="b428c271b2"><path d="M 218.027344 54.5625 L 304.300781 54.5625 L 304.300781 140.835938 L 218.027344 140.835938 Z M 218.027344 54.5625 " clip-rule="nonzero"/></clipPath><clipPath id="b053fc8b6f"><path d="M 261.164062 54.5625 C 237.339844 54.5625 218.027344 73.875 218.027344 97.699219 C 218.027344 121.523438 237.339844 140.835938 261.164062 140.835938 C 284.988281 140.835938 304.300781 121.523438 304.300781 97.699219 C 304.300781 73.875 284.988281 54.5625 261.164062 54.5625 Z M 261.164062 54.5625 " clip-rule="nonzero"/></clipPath><clipPath id="8e6de8bd8c"><path d="M 0.0273438 0.5625 L 86.300781 0.5625 L 86.300781 86.835938 L 0.0273438 86.835938 Z M 0.0273438 0.5625 " clip-rule="nonzero"/></clipPath><clipPath id="33595dbfee"><path d="M 43.164062 0.5625 C 19.339844 0.5625 0.0273438 19.875 0.0273438 43.699219 C 0.0273438 67.523438 19.339844 86.835938 43.164062 86.835938 C 66.988281 86.835938 86.300781 67.523438 86.300781 43.699219 C 86.300781 19.875 66.988281 0.5625 43.164062 0.5625 Z M 43.164062 0.5625 " clip-rule="nonzero"/></clipPath><clipPath id="bc1ab7ec9a"><rect x="0" width="87" y="0" height="87"/></clipPath><clipPath id="9f017c9dba"><path d="M 88.617188 204.214844 L 174.890625 204.214844 L 174.890625 290.488281 L 88.617188 290.488281 Z M 88.617188 204.214844 " clip-rule="nonzero"/></clipPath><clipPath id="dda6ea3854"><path d="M 131.753906 204.214844 C 107.929688 204.214844 88.617188 223.527344 88.617188 247.351562 C 88.617188 271.171875 107.929688 290.488281 131.753906 290.488281 C 155.578125 290.488281 174.890625 271.171875 174.890625 247.351562 C 174.890625 223.527344 155.578125 204.214844 131.753906 204.214844 Z M 131.753906 204.214844 " clip-rule="nonzero"/></clipPath><clipPath id="82b3321425"><path d="M 0.617188 0.214844 L 86.890625 0.214844 L 86.890625 86.488281 L 0.617188 86.488281 Z M 0.617188 0.214844 " clip-rule="nonzero"/></clipPath><clipPath id="aff78dabd3"><path d="M 43.753906 0.214844 C 19.929688 0.214844 0.617188 19.527344 0.617188 43.351562 C 0.617188 67.171875 19.929688 86.488281 43.753906 86.488281 C 67.578125 86.488281 86.890625 67.171875 86.890625 43.351562 C 86.890625 19.527344 67.578125 0.214844 43.753906 0.214844 Z M 43.753906 0.214844 " clip-rule="nonzero"/></clipPath><clipPath id="c0dfcfbeed"><rect x="0" width="87" y="0" height="87"/></clipPath><clipPath id="f383984150"><path d="M 146.070312 204.214844 L 232.34375 204.214844 L 232.34375 290.488281 L 146.070312 290.488281 Z M 146.070312 204.214844 " clip-rule="nonzero"/></clipPath><clipPath id="f8dd3a2de6"><path d="M 189.207031 204.214844 C 165.382812 204.214844 146.070312 223.527344 146.070312 247.351562 C 146.070312 271.171875 165.382812 290.488281 189.207031 290.488281 C 213.03125 290.488281 232.34375 271.171875 232.34375 247.351562 C 232.34375 223.527344 213.03125 204.214844 189.207031 204.214844 Z M 189.207031 204.214844 " clip-rule="nonzero"/></clipPath><clipPath id="260be3bafb"><path d="M 0.0703125 0.214844 L 86.34375 0.214844 L 86.34375 86.488281 L 0.0703125 86.488281 Z M 0.0703125 0.214844 " clip-rule="nonzero"/></clipPath><clipPath id="0d37c668af"><path d="M 43.207031 0.214844 C 19.382812 0.214844 0.0703125 19.527344 0.0703125 43.351562 C 0.0703125 67.171875 19.382812 86.488281 43.207031 86.488281 C 67.03125 86.488281 86.34375 67.171875 86.34375 43.351562 C 86.34375 19.527344 67.03125 0.214844 43.207031 0.214844 Z M 43.207031 0.214844 " clip-rule="nonzero"/></clipPath><clipPath id="620bf65054"><rect x="0" width="87" y="0" height="87"/></clipPath><clipPath id="a8cb0a432c"><path d="M 38.027344 69.929688 L 254.457031 69.929688 L 254.457031 225.566406 L 38.027344 225.566406 Z M 38.027344 69.929688 " clip-rule="nonzero"/></clipPath><clipPath id="f62d66ee92"><path d="M 146.070312 69.929688 C 86.398438 69.929688 38.027344 104.773438 38.027344 147.75 C 38.027344 190.726562 86.398438 225.566406 146.070312 225.566406 C 205.742188 225.566406 254.113281 190.726562 254.113281 147.75 C 254.113281 104.773438 205.742188 69.929688 146.070312 69.929688 Z M 146.070312 69.929688 " clip-rule="nonzero"/></clipPath><clipPath id="cd1c3b8e2f"><path d="M 0.0273438 0.929688 L 216 0.929688 L 216 156.566406 L 0.0273438 156.566406 Z M 0.0273438 0.929688 " clip-rule="nonzero"/></clipPath><clipPath id="591779e43a"><path d="M 108.070312 0.929688 C 48.398438 0.929688 0.0273438 35.773438 0.0273438 78.75 C 0.0273438 121.726562 48.398438 156.566406 108.070312 156.566406 C 167.742188 156.566406 216.113281 121.726562 216.113281 78.75 C 216.113281 35.773438 167.742188 0.929688 108.070312 0.929688 Z M 108.070312 0.929688 " clip-rule="nonzero"/></clipPath><clipPath id="a866c15fcb"><rect x="0" width="217" y="0" height="157"/></clipPath></defs><g clip-path="url(#66b13bdf2a)"><g clip-path="url(#86040e80c6)"><g transform="matrix(1, 0, 0, 1, 79, 247)"><g clip-path="url(#ef1236168f)"><g clip-path="url(#549017b7eb)"><g clip-path="url(#7df8a64d79)"><path fill="#054627" d="M 0.222656 0.351562 L 175.113281 0.351562 L 175.113281 313.238281 L 0.222656 313.238281 Z M 0.222656 0.351562 " fill-opacity="1" fill-rule="nonzero"/></g></g></g></g></g></g><g clip-path="url(#33489c996b)"><g clip-path="url(#bb9e7ceb4d)"><g transform="matrix(1, 0, 0, 1, 43, 35)"><g clip-path="url(#8464631ad8)"><g clip-path="url(#19c4d8e9cf)"><g clip-path="url(#d80efa8325)"><path fill="#f5e1c1" d="M 0.136719 0.00390625 L 242.539062 0.00390625 L 242.539062 242.40625 L 0.136719 242.40625 Z M 0.136719 0.00390625 " fill-opacity="1" fill-rule="nonzero"/></g></g></g></g></g></g><g clip-path="url(#36464e964d)"><g clip-path="url(#9c6f9c536c)"><g transform="matrix(1, 0, 0, 1, 0, 139)"><g clip-path="url(#4129c90634)"><g clip-path="url(#fc8a2cfefd)"><g clip-path="url(#96ccc3026f)"><path fill="#000000" d="M 0 0.292969 L 86.273438 0.292969 L 86.273438 86.566406 L 0 86.566406 Z M 0 0.292969 " fill-opacity="1" fill-rule="nonzero"/></g></g></g></g></g></g><g clip-path="url(#9a50a7985f)"><g clip-path="url(#79ca6b2d24)"><g transform="matrix(1, 0, 0, 1, 0, 69)"><g clip-path="url(#171fb12696)"><g clip-path="url(#2b0ac46785)"><g clip-path="url(#f74d44cf51)"><path fill="#000000" d="M 0 0.929688 L 86.273438 0.929688 L 86.273438 87.203125 L 0 87.203125 Z M 0 0.929688 " fill-opacity="1" fill-rule="nonzero"/></g></g></g></g></g></g><g clip-path="url(#87a57b40ad)"><g clip-path="url(#342763d1d1)"><g transform="matrix(1, 0, 0, 1, 28, 191)"><g clip-path="url(#3d27b927bc)"><g clip-path="url(#81fcce9fb8)"><g clip-path="url(#6d75b7764b)"><path fill="#000000" d="M 0.261719 0.132812 L 86.535156 0.132812 L 86.535156 86.40625 L 0.261719 86.40625 Z M 0.261719 0.132812 " fill-opacity="1" fill-rule="nonzero"/></g></g></g></g></g></g><g clip-path="url(#f9a5740d36)"><g clip-path="url(#82d20bdfe0)"><g transform="matrix(1, 0, 0, 1, 43, 26)"><g clip-path="url(#9b23a3f584)"><g clip-path="url(#d104abb862)"><g clip-path="url(#3c4b7c9a60)"><path fill="#000000" d="M 0.136719 0.796875 L 86.410156 0.796875 L 86.410156 87.066406 L 0.136719 87.066406 Z M 0.136719 0.796875 " fill-opacity="1" fill-rule="nonzero"/></g></g></g></g></g></g><g clip-path="url(#e16ccc91c5)"><g clip-path="url(#e5d8d00509)"><g transform="matrix(1, 0, 0, 1, 102, -0.000000000000098033)"><g clip-path="url(#1963a961cf)"><g clip-path="url(#c4cb272560)"><g clip-path="url(#07340ce1fe)"><path fill="#000000" d="M 0.933594 0.5625 L 87.207031 0.5625 L 87.207031 86.835938 L 0.933594 86.835938 Z M 0.933594 0.5625 " fill-opacity="1" fill-rule="nonzero"/></g></g></g></g></g></g><g clip-path="url(#8852681af3)"><g clip-path="url(#ac7011942f)"><g transform="matrix(1, 0, 0, 1, 174, 11)"><g clip-path="url(#3f801c271c)"><g clip-path="url(#f7a631005b)"><g clip-path="url(#69651b9add)"><path fill="#000000" d="M 0.890625 0.425781 L 87.164062 0.425781 L 87.164062 86.699219 L 0.890625 86.699219 Z M 0.890625 0.425781 " fill-opacity="1" fill-rule="nonzero"/></g></g></g></g></g></g><g clip-path="url(#b428c271b2)"><g clip-path="url(#b053fc8b6f)"><g transform="matrix(1, 0, 0, 1, 218, 54)"><g clip-path="url(#bc1ab7ec9a)"><g clip-path="url(#8e6de8bd8c)"><g clip-path="url(#33595dbfee)"><path fill="#000000" d="M 0.0273438 0.5625 L 86.300781 0.5625 L 86.300781 86.835938 L 0.0273438 86.835938 Z M 0.0273438 0.5625 " fill-opacity="1" fill-rule="nonzero"/></g></g></g></g></g></g><g clip-path="url(#9f017c9dba)"><g clip-path="url(#dda6ea3854)"><g transform="matrix(1, 0, 0, 1, 88, 204)"><g clip-path="url(#c0dfcfbeed)"><g clip-path="url(#82b3321425)"><g clip-path="url(#aff78dabd3)"><path fill="#000000" d="M 0.617188 0.214844 L 86.890625 0.214844 L 86.890625 86.488281 L 0.617188 86.488281 Z M 0.617188 0.214844 " fill-opacity="1" fill-rule="nonzero"/></g></g></g></g></g></g><g clip-path="url(#f383984150)"><g clip-path="url(#f8dd3a2de6)"><g transform="matrix(1, 0, 0, 1, 146, 204)"><g clip-path="url(#620bf65054)"><g clip-path="url(#260be3bafb)"><g clip-path="url(#0d37c668af)"><path fill="#000000" d="M 0.0703125 0.214844 L 86.34375 0.214844 L 86.34375 86.488281 L 0.0703125 86.488281 Z M 0.0703125 0.214844 " fill-opacity="1" fill-rule="nonzero"/></g></g></g></g></g></g><g clip-path="url(#a8cb0a432c)"><g clip-path="url(#f62d66ee92)"><g transform="matrix(1, 0, 0, 1, 38, 69)"><g clip-path="url(#a866c15fcb)"><g clip-path="url(#cd1c3b8e2f)"><g clip-path="url(#591779e43a)"><path fill="#000000" d="M 0.0273438 0.929688 L 215.847656 0.929688 L 215.847656 156.566406 L 0.0273438 156.566406 Z M 0.0273438 0.929688 " fill-opacity="1" fill-rule="nonzero"/></g></g></g></g></g></g></svg>